#N canvas 93 89 967 759 10;
#X obj 110 73 tgl 25 0 empty empty empty 17 7 0 25 -262144 -1 -1 0
1;
#X obj 458 283 *;
#X obj 506 279 samplerate~;
#X obj 458 259 t f b;
#N canvas 524 66 813 514 set 0;
#X obj 314 83 inlet;
#X obj 314 205 realtime;
#X obj 314 109 t b b;
#X obj 153 201 +;
#X obj 126 200 f;
#X msg 153 159 1;
#X obj 359 178 spigot;
#X obj 126 285 > 1;
#X obj 618 330 sel 1;
#X msg 126 159 0;
#X obj 642 195 metro 1;
#X obj 642 251 +;
#X obj 618 251 f;
#X msg 642 215 1;
#X msg 614 215 0;
#X obj 172 255 sel 1;
#X obj 642 170 tgl 15 0 empty empty empty 17 7 0 10 -262144 -1 -1 1
1;
#X obj 314 350 +;
#X obj 288 350 f;
#X obj 618 282 spigot;
#X obj 288 402 /;
#X obj 199 361 - 1;
#X obj 315 485 outlet;
#X obj 275 86 bng 15 250 50 0 empty empty empty 17 7 0 10 -262144 -1
-1;
#X floatatom 341 463 12 0 0 0 - - -;
#X obj 126 306 s TAP_not_first;
#X obj 392 156 r TAP_not_first;
#X obj 671 253 r TAP_not_first;
#X obj 172 277 s TAP_start;
#X obj 642 148 r TAP_start;
#X obj 288 439 sel 0;
#X obj 618 311 > 3000;
#X obj 618 351 s TAP_finish;
#X obj 614 125 r TAP_finish;
#X obj 126 136 r TAP_finish;
#X msg 288 329 0;
#X obj 288 306 r TAP_finish;
#X text 500 24 A timer gets triggered and reset every time;
#X text 499 38 the inlet receives a bang. If nothing happens;
#X text 498 53 afterwards for 3000 ms \, the "tempo" is considered
;
#X text 498 68 definitive \, and everything gets reset.;
#X text 498 90 comment;
#X text 12 189 Count the number;
#X text 12 201 of bangs received.;
#X text 385 199 Measure the time between;
#X text 385 212 two bangs (making sure that;
#X text 386 223 we only start measuring at;
#X text 386 235 the second bang).;
#X text 358 342 Sum the measured durations...;
#X text 336 403 ... and divide it by the number of bangs-1;
#X text 336 417 to get the average time between 2 bangs.;
#X text 558 490 Pierre Massat \, Guitar Extended \, 2013;
#X text 6 2 "Tap tempo" : we don't measure the tempo;
#X text 5 16 here \, but the duration between 2 beats (bangs).;
#X text 5 30 This is used later to set the length of the loop.;
#X connect 0 0 2 0;
#X connect 1 0 17 0;
#X connect 2 0 1 0;
#X connect 2 1 5 0;
#X connect 2 1 6 0;
#X connect 2 1 14 0;
#X connect 3 0 4 0;
#X connect 4 0 3 1;
#X connect 4 0 7 0;
#X connect 4 0 21 0;
#X connect 4 0 15 0;
#X connect 5 0 3 0;
#X connect 6 0 1 1;
#X connect 7 0 25 0;
#X connect 8 0 32 0;
#X connect 9 0 4 0;
#X connect 10 0 13 0;
#X connect 11 0 12 0;
#X connect 12 0 11 1;
#X connect 12 0 19 0;
#X connect 13 0 11 0;
#X connect 14 0 12 0;
#X connect 15 0 28 0;
#X connect 16 0 10 0;
#X connect 17 0 18 0;
#X connect 18 0 17 1;
#X connect 18 0 20 0;
#X connect 19 0 31 0;
#X connect 20 0 30 0;
#X connect 21 0 20 1;
#X connect 23 0 2 0;
#X connect 26 0 6 1;
#X connect 27 0 19 1;
#X connect 29 0 16 0;
#X connect 30 1 22 0;
#X connect 30 1 24 0;
#X connect 31 0 8 0;
#X connect 33 0 16 0;
#X connect 34 0 9 0;
#X connect 35 0 18 0;
#X connect 36 0 35 0;
#X restore 458 131 pd set tempo;
#X obj 458 163 * 4;
#X obj 458 99 bng 15 250 50 0 empty empty empty 17 7 0 10 -262144 -1
-1;
#X obj 458 188 / 1000;
#X obj 58 296 r~ main_out;
#X obj 58 327 +~;
#X obj 74 196 *~;
#X obj 110 178 line~;
#X obj 110 159 pack 0 5;
#X obj 480 393 r loop_on_off;
#X text 97 17 Record;
#N canvas 68 23 450 300 into_blocks 0;
#X obj 173 101 % 64;
#X obj 146 81 t f f;
#X obj 146 121 -;
#X obj 146 59 int;
#X obj 146 17 inlet;
#X obj 146 167 outlet;
#X text 238 67 to be a multiple of the block size.;
#X text 238 49 Force the length of the tables;
#X text 134 261 Pierre Massat \, Guitar extended \, 2013;
#X connect 0 0 2 1;
#X connect 1 0 2 0;
#X connect 1 1 0 0;
#X connect 2 0 5 0;
#X connect 3 0 1 0;
#X connect 4 0 3 0;
#X restore 458 305 pd into_blocks;
#X obj 458 330 s new_length;
#X obj 847 262 r new_length;
#X obj 559 549 spigot;
#X obj 480 453 sel 1 0;
#X msg 480 486 bang;
#X msg 514 485 stop;
#X obj 478 565 s~ main_out;
#X obj 847 332 r empty_table;
#X obj 775 122 t f f;
#X obj 775 166 s loop_on_off;
#X obj 480 433 t f f;
#X obj 579 528 s stop_looping;
#X obj 126 346 r stop_looping;
#X obj 559 578 s new_cycle;
#X obj 145 367 r new_cycle;
#X obj 58 388 tabwrite~ bande;
#X obj 478 527 tabplay~ bande;
#X obj 847 404 table bande;
#N canvas 446 217 252 185 limiter 0;
#X obj 24 22 inlet~;
#X msg 121 85 limit 100;
#X obj 121 21 loadbang;
#X obj 24 60 z~ 64;
#X obj 24 169 *~;
#X obj 24 200 outlet~;
#X obj 121 113 limiter~ 10;
#X connect 0 0 3 0;
#X connect 0 0 6 0;
#X connect 1 0 6 0;
#X connect 2 0 1 0;
#X connect 3 0 4 0;
#X connect 4 0 5 0;
#X connect 6 0 4 1;
#X restore 74 246 pd limiter;
#X obj 605 100 bng 15 250 50 0 empty empty empty 17 7 0 10 -262144
-1 -1;
#X obj 605 176 s empty_table;
#X text 446 56 Tempo;
#X obj 480 413 tgl 15 0 empty empty empty 17 7 0 10 -262144 -1 -1 0
1;
#X text 698 654 Pierre Massat \, Guitar Extended \, 2013;
#X text 562 473 Here we play the table (loop) continuously.;
#X text 42 422 This is where the recording happens.;
#X text 309 121 Get the duration between;
#X text 309 133 two beats...;
#X text 310 165 ... divide it by 4 (we;
#X text 310 178 assume that there are 4;
#X text 310 190 beats in a bar)...;
#X text 288 250 ...and compute the length;
#X text 288 264 of the table in samples \, as;
#X text 289 291 block size.;
#X text 289 279 a multiple of the;
#X obj 775 102 tgl 15 0 empty empty empty 17 7 0 10 -262144 -1 -1 0
1;
#X msg 449 393 1;
#X obj 605 120 t b b;
#X obj 605 143 del 2;
#X text 746 53 Audio On/Off;
#X text 595 56 Clear;
#X obj 449 369 r new_length;
#X obj 61 598 soundfiler;
#X obj 61 558 savepanel;
#X obj 61 540 bng 15 250 50 0 empty empty empty 17 7 0 10 -262144 -1
-1;
#X msg 61 578 write -wave \$1.wav bande;
#X text 27 502 And if you really happy with your loop \,;
#X text 27 516 save it as a .wav file !;
#N canvas 185 178 252 185 limiter 0;
#X obj 24 22 inlet~;
#X msg 121 85 limit 100;
#X obj 121 21 loadbang;
#X obj 24 60 z~ 64;
#X obj 24 169 *~;
#X obj 24 200 outlet~;
#X obj 121 113 limiter~ 10;
#X connect 0 0 3 0;
#X connect 0 0 6 0;
#X connect 1 0 6 0;
#X connect 2 0 1 0;
#X connect 3 0 4 0;
#X connect 4 0 5 0;
#X connect 6 0 4 1;
#X restore 365 568 pd limiter;
#X obj 802 147 switch~;
#N canvas 175 136 691 422 reverse 0;
#X obj 120 109 bng 15 250 50 0 empty empty Reverse_me 18 7 0 8 -262144
-1 -1;
#X obj 120 200 until;
#X obj 186 228 + 1;
#X obj 154 228 f;
#X obj 145 176 s \$1-length;
#X obj 323 335 table tempArray;
#X obj 120 152 t f f f;
#X obj 244 196 s tempArray;
#X msg 244 172 resize \$1;
#X obj 75 308 tabwrite tempArray;
#X obj 520 51 sel;
#X obj 596 41 - 1;
#X obj 596 17 r \$1-length;
#X obj 154 254 t f f f;
#X obj 67 278 s \$1-eof;
#X obj 520 18 r \$1-eof;
#X obj 520 123 until;
#X obj 520 98 f;
#X obj 520 156 f;
#X obj 552 156 - 1;
#X obj 571 103 r \$1-length;
#X obj 539 74 r \$1-length;
#X obj 520 208 tabread tempArray;
#X obj 584 255 f;
#X obj 603 231 r \$1-length;
#X obj 584 304 mod;
#X obj 603 279 r \$1-length;
#X obj 614 255 + 1;
#X obj 520 181 t f b;
#X obj 571 126 - 1;
#X text 53 335 Copies array to a temporary location.;
#X msg 337 124 0;
#X obj 337 148 s clr2;
#X obj 463 110 r clr2;
#X obj 173 200 r clr2;
#X obj 120 128 arraysize bande;
#X obj 179 281 tabread bande;
#X obj 520 335 tabwrite bande;
#X obj 120 42 inlet;
#X obj 471 368 sel 0;
#X text 515 377 Bang when done copying;
#X obj 471 390 outlet;
#X text 206 396 (Taken and adapted from Pd's help);
#X connect 0 0 31 0;
#X connect 0 0 35 0;
#X connect 1 0 3 0;
#X connect 2 0 3 1;
#X connect 3 0 2 0;
#X connect 3 0 13 0;
#X connect 6 0 1 0;
#X connect 6 1 4 0;
#X connect 6 2 8 0;
#X connect 8 0 7 0;
#X connect 10 0 17 0;
#X connect 11 0 10 1;
#X connect 12 0 11 0;
#X connect 13 0 14 0;
#X connect 13 1 36 0;
#X connect 13 2 9 1;
#X connect 15 0 10 0;
#X connect 16 0 18 0;
#X connect 17 0 16 0;
#X connect 18 0 19 0;
#X connect 18 0 28 0;
#X connect 19 0 18 1;
#X connect 20 0 29 0;
#X connect 21 0 17 1;
#X connect 22 0 37 0;
#X connect 23 0 25 0;
#X connect 23 0 27 0;
#X connect 24 0 23 1;
#X connect 25 0 37 1;
#X connect 26 0 25 1;
#X connect 27 0 23 1;
#X connect 28 0 22 0;
#X connect 28 0 39 0;
#X connect 28 1 23 0;
#X connect 29 0 18 1;
#X connect 31 0 32 0;
#X connect 33 0 18 1;
#X connect 34 0 3 1;
#X connect 35 0 6 0;
#X connect 36 0 9 0;
#X connect 38 0 0 0;
#X connect 39 0 41 0;
#X restore 893 560 pd reverse;
#X obj 893 497 bng 15 250 50 0 empty empty empty 17 7 0 10 -262144
-1 -1;
#X msg 847 354 \; bande const 0 \;;
#X msg 847 282 \; bande resize \$1 \;;
#X obj 893 518 t b b;
#X obj 366 548 *~;
#X obj 381 527 line~;
#X obj 381 507 pack 0 5;
#X msg 923 584 0;
#X obj 893 538 del 5;
#X msg 893 584 1;
#X obj 365 458 r~ main_out;
#X obj 893 612 s vol-output;
#X obj 381 486 r vol-output;
#X text 876 474 Reverse it !!!;
#X obj 751 188 s vol-output;
#X obj -34 253 r~ hihat;
#X obj 111 42 r recordtoggle;
#X floatatom 347 341 10 0 0 0 - - -;
#X msg 532 224 2;
#X obj 532 188 bng 15 250 50 0 empty empty empty 17 7 0 10 -262144
-1 -1;
#X text 565 223 2 second loop (1 bar at 4/4 \, 120 bpm);
#X obj 32 117 metro 500;
#X obj 32 153 bng 15 250 50 0 empty empty empty 17 7 0 10 -262144 -1
-1;
#X obj -114 251 r~ backright;
#X obj -190 249 r~ backleft;
#X obj -276 249 r~ frontright;
#X obj -360 250 r~ frontleft;
#X obj 326 1525 dac~;
#X obj 1862 1092 hsl 128 15 0 10 0 0 empty empty empty -2 -8 0 10 -262144
-1 -1 0 1;
#X obj 1700 1199 *~ 2;
#X obj 1700 1219 +~ 2;
#X obj 1739 1241 *~ 2;
#X obj 1738 1264 +~ 2;
#X obj 1486 1173 delwrite~ phase2 100;
#X obj 1738 1290 vd~ phase2;
#X obj 1739 1197 wrap~;
#X obj 1709 1142 phasor~;
#X obj 1738 1176 +~ 0.5;
#X obj 1700 1176 cos~;
#X obj 1739 1217 cos~;
#X obj 1865 1189 hsl 128 15 0 3 0 0 empty empty empty -2 -8 0 10 -262144
-1 -1 0 1;
#X obj 1738 1313 *~ 0.8;
#X obj 1700 1374 *~ 0.8;
#X obj 1809 1401 s~ output;
#X obj 391 1412 r~ output;
#X obj 1894 1308 hsl 128 15 -0.9 0.9 0 0 empty empty empty -2 -8 0
10 -262144 -1 -1 0 1;
#X text 1614 1107 <-- Write to delay lines;
#X text 1810 1287 <-- Read from delay line 2;
#X text 1804 1351 <-- Read from delay line 1;
#X obj 1701 1351 vd~ phase1;
#X obj 1487 1113 delwrite~ phase1 100;
#X text 1772 1142 <-- Low Frequency Oscillator (LFO);
#X floatatom 1859 1116 5 0 0 0 - - -;
#X floatatom 1863 1215 5 0 0 0 - - -;
#X floatatom 1891 1329 5 0 0 0 - - -;
#X text 2002 1088 <-- Speed (try 0.7);
#X text 2007 1187 <-- Depth (try 2.4);
#X text 2034 1308 <-- Feedback (try -0.3);
#X text 1687 1042 phasor;
#X obj 1928 965 r backwallx;
#X obj 2165 1009 r backwally;
#X floatatom 1927 998 5 0 0 0 - - -;
#X floatatom 2170 1044 5 0 0 0 - - -;
#X obj 1926 1026 / 100;
#X floatatom 1932 1052 5 0 0 0 - - -;
#X obj 2170 1077 / 100;
#X floatatom 2169 1107 5 0 0 0 - - -;
#X obj -140 162 r~ newdrum;
#X obj 1168 1077 lop~;
#X obj 1192 988 hsl 128 15 0 127 0 0 empty empty empty -2 -8 0 10 -262144
-1 -1 0 1;
#X obj 1189 1017 mtof;
#X floatatom 1189 1046 5 0 0 0 - - -;
#X obj 1192 1125 hsl 128 15 0 127 0 0 empty empty empty -2 -8 0 10
-262144 -1 -1 0 1;
#X obj 1189 1154 mtof;
#X floatatom 1189 1183 5 0 0 0 - - -;
#X obj 1168 1214 hip~;
#X obj 795 1060 hsl 128 15 0 127 0 0 empty empty center_frequency -2
-8 0 10 -262144 -1 -1 5200 1;
#X obj 792 1089 mtof;
#X floatatom 792 1118 5 0 0 0 - - -;
#X obj 807 1232 osc~;
#X obj 792 1314 +~;
#X text 714 1060 default: 220;
#X text 1326 987 default: max;
#X text 1327 1124 default: min;
#X obj 764 1358 vcf~ 220 1;
#X obj 972 1232 hsl 128 15 0 5 0 0 empty empty resonance_(0-5) -2 -8
0 10 -262144 -1 -1 0 1;
#X obj 810 1188 hsl 128 15 0 5 0 0 empty empty modulation_frequency_(0-5)
-2 -8 0 10 -262144 -1 -1 1300 1;
#X obj 972 1029 hsl 128 15 0 5 0 0 empty empty (0-5) -2 -8 0 10 -262144
-1 -1 0 1;
#X obj 859 755 r backwallx;
#X floatatom 859 788 5 0 0 0 - - -;
#X obj 386 720 r backwally;
#X floatatom 386 753 5 0 0 0 - - -;
#X msg 799 1145 220;
#X obj 365 987 lop~;
#X obj 439 911 hsl 128 15 0 127 0 0 empty empty empty -2 -8 0 10 -262144
-1 -1 0 1;
#X obj 436 937 mtof;
#X floatatom 436 963 5 0 0 0 - - -;
#X obj 549 1178 hsl 128 15 0 127 0 0 empty empty empty -2 -8 0 10 -262144
-1 -1 0 1;
#X obj 546 1207 mtof;
#X floatatom 546 1236 5 0 0 0 - - -;
#X obj 475 1262 hip~;
#X text 573 910 default: max;
#X text 684 1177 default: min;
#X obj 807 1282 *~;
#X floatatom 853 1250 5 0 0 0 - - -;
#X obj 546 1099 - 170;
#X obj 436 799 - 50;
#X obj 326 833 spigot~;
#X text 174 820 if backwally is zero \, no effects will be used \,
otherwise use effects;
#X text 381 1392 what is this?;
#X obj 859 816 - 450;
#X obj 859 844 / 80;
#X floatatom 900 871 5 0 0 0 - - -;
#X obj 859 874 abs;
#X floatatom 898 904 5 0 0 0 - - -;
#X obj 436 886 line;
#X text 481 858 smoothing;
#X obj 546 1154 line;
#X text 591 1126 smoothing;
#X msg 546 1126 \$1 25;
#X obj 674 1361 osc~;
#X floatatom 393 856 5 0 0 0 - - -;
#X obj 436 827 / 2;
#X msg 436 858 \$1 20;
#X connect 0 0 12 0;
#X connect 0 0 88 0;
#X connect 1 0 15 0;
#X connect 2 0 1 1;
#X connect 3 0 1 0;
#X connect 3 1 2 0;
#X connect 4 0 5 0;
#X connect 5 0 7 0;
#X connect 6 0 4 0;
#X connect 8 0 9 0;
#X connect 9 0 31 0;
#X connect 10 0 34 0;
#X connect 11 0 10 1;
#X connect 12 0 11 0;
#X connect 13 0 38 0;
#X connect 15 0 16 0;
#X connect 15 0 84 0;
#X connect 17 0 69 0;
#X connect 18 0 29 0;
#X connect 18 0 32 0;
#X connect 19 0 20 0;
#X connect 19 1 21 0;
#X connect 20 0 29 0;
#X connect 20 0 32 0;
#X connect 21 0 27 0;
#X connect 21 0 32 0;
#X connect 23 0 68 0;
#X connect 24 0 25 0;
#X connect 24 0 81 0;
#X connect 24 1 65 0;
#X connect 26 0 19 0;
#X connect 26 1 18 1;
#X connect 28 0 31 0;
#X connect 30 0 31 0;
#X connect 32 0 22 0;
#X connect 32 1 18 0;
#X connect 34 0 9 1;
#X connect 35 0 53 0;
#X connect 38 0 26 0;
#X connect 51 0 24 0;
#X connect 52 0 38 0;
#X connect 53 0 54 0;
#X connect 53 1 36 0;
#X connect 54 0 36 0;
#X connect 57 0 52 0;
#X connect 59 0 61 0;
#X connect 60 0 59 0;
#X connect 61 0 58 0;
#X connect 64 0 174 0;
#X connect 66 0 76 0;
#X connect 67 0 70 0;
#X connect 70 0 75 0;
#X connect 70 1 74 0;
#X connect 71 0 64 0;
#X connect 72 0 71 1;
#X connect 73 0 72 0;
#X connect 74 0 78 0;
#X connect 75 0 66 0;
#X connect 76 0 78 0;
#X connect 77 0 71 0;
#X connect 79 0 73 0;
#X connect 82 0 31 0;
#X connect 83 0 0 0;
#X connect 85 0 3 0;
#X connect 86 0 85 0;
#X connect 88 0 89 0;
#X connect 90 0 31 0;
#X connect 91 0 31 0;
#X connect 92 0 31 0;
#X connect 93 0 31 0;
#X connect 95 0 103 0;
#X connect 95 0 119 0;
#X connect 96 0 97 0;
#X connect 97 0 116 0;
#X connect 98 0 99 0;
#X connect 99 0 101 0;
#X connect 101 0 108 0;
#X connect 101 0 110 0;
#X connect 102 0 106 0;
#X connect 103 0 104 0;
#X connect 103 0 105 0;
#X connect 104 0 102 0;
#X connect 105 0 96 0;
#X connect 106 0 98 0;
#X connect 107 0 96 1;
#X connect 107 0 98 1;
#X connect 107 0 97 1;
#X connect 107 0 99 1;
#X connect 107 0 120 0;
#X connect 108 0 100 0;
#X connect 109 0 117 0;
#X connect 111 0 94 1;
#X connect 111 0 94 0;
#X connect 112 0 109 1;
#X connect 112 0 108 1;
#X connect 112 0 121 0;
#X connect 116 0 109 0;
#X connect 116 0 110 0;
#X connect 126 0 128 0;
#X connect 127 0 129 0;
#X connect 128 0 130 0;
#X connect 129 0 132 0;
#X connect 130 0 131 0;
#X connect 131 0 95 0;
#X connect 132 0 133 0;
#X connect 133 0 107 0;
#X connect 134 0 31 0;
#X connect 135 0 142 0;
#X connect 136 0 137 0;
#X connect 137 0 138 0;
#X connect 138 0 135 1;
#X connect 139 0 140 0;
#X connect 140 0 141 0;
#X connect 141 0 142 1;
#X connect 143 0 144 0;
#X connect 144 0 145 0;
#X connect 146 0 170 0;
#X connect 147 0 151 1;
#X connect 152 0 151 2;
#X connect 153 0 146 0;
#X connect 154 0 153 0;
#X connect 154 0 152 0;
#X connect 155 0 156 0;
#X connect 156 0 177 0;
#X connect 157 0 158 0;
#X connect 158 0 173 0;
#X connect 158 0 174 1;
#X connect 159 0 147 0;
#X connect 160 0 94 0;
#X connect 160 0 94 1;
#X connect 161 0 162 0;
#X connect 162 0 163 0;
#X connect 163 0 160 1;
#X connect 164 0 165 0;
#X connect 165 0 166 0;
#X connect 166 0 167 1;
#X connect 167 0 151 0;
#X connect 170 0 147 1;
#X connect 171 0 170 1;
#X connect 172 0 186 0;
#X connect 173 0 189 0;
#X connect 174 0 94 0;
#X connect 174 0 94 1;
#X connect 174 1 160 0;
#X connect 177 0 178 0;
#X connect 178 0 180 0;
#X connect 178 0 179 0;
#X connect 180 0 181 0;
#X connect 182 0 161 0;
#X connect 184 0 164 0;
#X connect 186 0 184 0;
#X connect 189 0 190 0;
#X connect 189 0 188 0;
#X connect 190 0 182 0;
