#N canvas 464 169 838 593 10;
#X obj 448 -3 r hand;
#X obj 448 33 route 0;
#X obj 448 122 unpack f f f;
#X floatatom 355 174 5 0 0 0 - - -;
#X floatatom 482 170 5 0 0 0 - - -;
#X floatatom 600 171 5 0 0 0 - - -;
#X obj 191 266 / 1000;
#X floatatom 191 295 10 0 0 0 - - -;
#X obj 482 235 / 1000;
#X obj 600 238 / 1000;
#X floatatom 482 260 10 0 0 0 - - -;
#X floatatom 600 266 10 0 0 0 - - -;
#X obj 1014 902 bng 15 250 50 0 empty empty empty 17 7 0 10 -262144
-1 -1;
#X obj 1195 1396 bng 15 250 50 0 empty empty empty 17 7 0 10 -262144
-1 -1;
#X obj 976 1513 bng 15 250 50 0 empty empty empty 17 7 0 10 -262144
-1 -1;
#X obj 1056 1514 bng 15 250 50 0 empty empty empty 17 7 0 10 -262144
-1 -1;
#X obj 809 1403 bng 15 250 50 0 empty empty empty 17 7 0 10 -262144
-1 -1;
#X obj 747 1518 line~;
#X obj 869 1524 line~;
#X obj 782 1556 osc~;
#X obj 785 1650 dac~;
#X obj 783 1585 *~;
#X msg 869 1498 1 \, 0 50;
#X obj 784 1613 *~ 0.5;
#X text 821 1494 Bass;
#X obj 892 1070 noise~;
#X obj 939 1070 line~;
#X obj 887 1225 dac~;
#X text 835 1104 Generates ramp from 2 values;
#X obj 887 1155 *~;
#X text 1022 1038 HiHat;
#X msg 939 1039 0.6 \, 0 75;
#X obj 937 1012 bng 15 250 50 0 empty empty empty 17 7 0 10 -262144
-1 -1;
#X obj 1151 1560 noise~;
#X obj 1201 1561 line~;
#X obj 1151 1596 *~;
#X obj 1143 1678 dac~;
#X obj 1151 1651 *~ 1;
#X obj 1151 1624 lop~ 400;
#X msg 1201 1529 3 \, 0 50;
#X text 1202 1593 Snare;
#X obj 1177 1494 bng 15 250 50 0 empty empty empty 17 7 0 10 -262144
-1 -1;
#X obj 959 944 change;
#X obj 944 899 bng 15 250 50 0 empty empty empty 17 7 0 10 -262144
-1 -1;
#X msg 1023 924 0;
#X msg 929 921 1;
#X floatatom 972 972 5 0 0 0 - - -;
#X obj 888 983 moses 0.5;
#X text 795 914 if < -0.2 bang a 1;
#X text 772 966 if it's a 1 \, bang;
#X obj 288 791 leapmotion;
#X obj 1001 1561 change;
#X obj 1001 1589 moses 0.5;
#X msg 970 1535 1;
#X msg 1053 1535 0;
#X obj -24 114 route fingers;
#X obj -132 158 route 0 1 2 3 4;
#X obj -343 188 route position;
#X obj 1145 1400 bng 15 250 50 0 empty empty empty 17 7 0 10 -262144
-1 -1;
#X obj 1164 1450 change;
#X msg 1206 1422 1;
#X msg 1131 1425 0;
#X obj 1175 1472 moses 0.5;
#X obj -343 215 unpack f f f;
#X floatatom -343 238 5 0 0 0 - - -;
#X obj -342 263 / 1000;
#X floatatom -342 295 5 0 0 0 - - -;
#X obj -266 357 min;
#X obj -124 190 route position;
#X obj -124 217 unpack f f f;
#X floatatom -124 240 5 0 0 0 - - -;
#X obj -123 265 / 1000;
#X floatatom -123 297 5 0 0 0 - - -;
#X obj -231 190 route position;
#X obj -231 217 unpack f f f;
#X floatatom -231 240 5 0 0 0 - - -;
#X obj -230 265 / 1000;
#X floatatom -230 297 5 0 0 0 - - -;
#X obj -24 190 route position;
#X obj -24 217 unpack f f f;
#X floatatom -24 240 5 0 0 0 - - -;
#X obj -23 265 / 1000;
#X floatatom -23 297 5 0 0 0 - - -;
#X obj 76 190 route position;
#X obj 76 217 unpack f f f;
#X floatatom 76 240 5 0 0 0 - - -;
#X obj 77 265 / 1000;
#X floatatom 77 297 5 0 0 0 - - -;
#X obj -55 348 min;
#X obj -164 387 min;
#X obj 72 377 min;
#X obj -295 0 r general;
#X obj -286 32 unpack f f f f f f;
#X obj -355 11 == 0;
#X floatatom -320 83 5 0 0 0 - - -;
#X msg -359 55 0;
#X obj -358 34 trigger b;
#X obj -250 69 == 4;
#X obj -213 66 == 3;
#X obj -171 67 == 2;
#X obj -133 68 == 1;
#X obj -99 67 == 0;
#X floatatom 889 886 5 0 0 0 - - -;
#X msg -254 109 0;
#X msg -210 107 0;
#X msg -172 109 0;
#X msg -131 107 0;
#X msg -89 105 0;
#X floatatom -291 236 5 0 0 0 - - -;
#X obj -290 261 / 1000;
#X floatatom -290 293 5 0 0 0 - - -;
#X obj -214 355 min;
#X floatatom -72 238 5 0 0 0 - - -;
#X obj -71 263 / 1000;
#X floatatom -71 295 5 0 0 0 - - -;
#X floatatom -179 238 5 0 0 0 - - -;
#X obj -178 263 / 1000;
#X floatatom -178 295 5 0 0 0 - - -;
#X floatatom 28 238 5 0 0 0 - - -;
#X obj 29 263 / 1000;
#X floatatom 29 295 5 0 0 0 - - -;
#X floatatom 128 238 5 0 0 0 - - -;
#X obj 129 263 / 1000;
#X floatatom 129 295 5 0 0 0 - - -;
#X obj -3 346 min;
#X obj -112 385 min;
#X obj 72 429 min;
#X obj 950 674 tgl 15 0 empty empty empty 17 7 0 10 -262144 -1 -1 0
1;
#X obj 949 743 counter;
#X floatatom 949 776 10 0 0 0 - - -;
#X floatatom 949 838 5 0 0 0 - - -;
#X obj 950 709 metro 500;
#X floatatom 782 245 5 0 0 0 - - -;
#X obj 957 875 moses 0.5;
#X obj 949 807 % 2;
#X obj 850 271 * -1;
#X floatatom 877 310 5 0 0 0 - - -;
#X floatatom 940 309 5 0 0 0 - - -;
#X obj 990 1490 moses 0.1;
#X floatatom 1055 445 5 0 0 0 - - -;
#X obj 932 342 / 1.5;
#X floatatom 951 369 5 0 0 0 - - -;
#X obj 789 13 r gesture;
#X obj 789 52 route 0;
#X obj 789 83 route type;
#X obj 987 350 moses 240;
#X obj 791 208 int;
#X floatatom 1143 364 5 0 0 0 - - -;
#X obj 1152 427 bng 15 250 50 0 empty empty empty 17 7 0 10 -262144
-1 -1;
#X msg 1092 543 0;
#X obj 1056 501 bng 15 250 50 0 empty empty empty 17 7 0 10 -262144
-1 -1;
#X msg 1045 561 1;
#X obj 1046 605 change;
#X obj 1046 633 moses 0.5;
#X obj 470 748 keyup;
#X floatatom 472 793 5 0 0 0 - - -;
#X obj 433 748 key;
#X floatatom 425 793 5 0 0 0 - - -;
#X obj 537 750 key;
#X obj 538 780 select 114;
#X msg 630 801;
#X obj 539 817 bng 15 250 50 0 empty empty empty 17 7 0 10 -262144
-1 -1;
#X obj 545 847 s recordtoggle;
#X obj 821 1235 s~ hihat;
#X msg 803 1531 0.5;
#X obj 600 326 bng 15 250 50 0 empty empty empty 17 7 0 10 -262144
-1 -1;
#X msg 600 353 1;
#X obj 657 326 bng 15 250 50 0 empty empty empty 17 7 0 10 -262144
-1 -1;
#X msg 657 353 0;
#X floatatom 306 292 5 0 0 0 - - -;
#X floatatom 413 293 5 0 0 0 - - -;
#X obj 413 321 moses 0;
#X obj 413 266 - 100;
#X floatatom 452 440 5 0 0 0 - - -;
#X obj 306 320 moses 0;
#X floatatom 345 350 5 0 0 0 - - -;
#X obj 306 264 + 150;
#X obj 489 341 bng 15 250 50 0 empty empty empty 17 7 0 10 -262144
-1 -1;
#X obj 600 393 change;
#X obj 600 422 moses 0.5;
#X floatatom 305 509 5 0 0 0 - - -;
#X obj 734 1477 pack f f;
#X obj 414 473 + 0;
#X msg 414 440 0;
#X floatatom 414 504 5 0 0 0 - - -;
#X obj 600 295 moses -0.1;
#X obj 305 476 +;
#X msg 305 439 0;
#X obj 345 439 * 3;
#X obj 939 269 + 700;
#X obj 961 1164 vsl 15 128 0 1 0 0 empty empty empty 0 -9 0 10 -262144
-1 -1 0 1;
#X obj 887 1184 *~;
#X obj 868 1629 vsl 15 64 0 1 0 0 empty empty empty 0 -9 0 10 -262144
-1 -1 0 1;
#X obj 1271 1543 vsl 15 128 0 1 0 0 empty empty empty 0 -9 0 10 -262144
-1 -1 0 1;
#X obj 1143 1362 moses -0.18;
#X obj 30 450 min;
#X obj 191 322 - 0.02;
#N canvas 94 102 1250 727 multipad 1;
#X obj 127 46 r x_palm;
#X obj 338 113 r z_palm;
#X obj 308 562 select 0 1 2 3;
#X obj 182 183 moses 0;
#X obj 180 227 bng 15 250 50 0 empty empty empty 17 7 0 10 -262144
-1 -1;
#X obj 182 285 float;
#X obj 180 322 moses 0;
#X obj 135 130 float;
#X obj 182 91 bng 15 250 50 0 empty empty empty 17 7 0 10 -262144 -1
-1;
#X obj 187 371 bng 15 250 50 0 empty empty empty 17 7 0 10 -262144
-1 -1;
#X obj 223 374 bng 15 250 50 0 empty empty empty 17 7 0 10 -262144
-1 -1;
#X obj 278 239 bng 15 250 50 0 empty empty empty 17 7 0 10 -262144
-1 -1;
#X obj 280 297 float;
#X obj 278 334 moses 0;
#X obj 285 384 bng 15 250 50 0 empty empty empty 17 7 0 10 -262144
-1 -1;
#X obj 322 379 bng 15 250 50 0 empty empty empty 17 7 0 10 -262144
-1 -1;
#X msg 181 440 0;
#X msg 220 439 1;
#X msg 284 445 2;
#X msg 326 446 3;
#X obj 287 -89 r y_fingers;
#X obj 203 -32 bng 15 250 50 0 empty empty empty 17 7 0 10 -262144
-1 -1;
#X obj 283 -31 bng 15 250 50 0 empty empty empty 17 7 0 10 -262144
-1 -1;
#X obj 228 16 change;
#X msg 197 -10 1;
#X msg 280 -10 0;
#X obj 226 42 moses 0.5;
#X obj 536 -124 r palm_velocity;
#X obj 592 127 moses 0;
#X obj 631 166 moses 1;
#X floatatom 631 191 5 0 0 0 - - -;
#X floatatom 631 241 5 0 0 0 - - -;
#X obj 214 -58 moses 0.1;
#X obj 556 -91 unpack f f f;
#X obj 578 -55 abs;
#X floatatom 572 -5 5 0 0 0 - - -;
#X obj 592 97 * 0.001;
#X obj 631 215 * 1;
#X obj -332 1714 *~;
#X obj -299 1714 *~;
#X obj -332 1747 dac~ 1 2;
#X obj -254 1563 vsl 15 128 0 1 0 0 empty empty empty 0 -9 0 10 -262144
-1 -1 954 1;
#N canvas 0 22 450 278 (subpatch) 0;
#X array AChannelL 141750 float 2;
#X coords 0 1 141750 -1 200 140 1 0 0;
#X restore -32 1012 graph;
#N canvas 0 22 450 278 (subpatch) 0;
#X array AChannelR 141750 float 2;
#X coords 0 1 141750 -1 200 140 1 0 0;
#X restore -32 1195 graph;
#X obj -332 982 bng 15 250 50 0 empty empty empty 17 7 0 10 -262144
-1 -1;
#X obj -332 1019 openpanel;
#X obj -332 1079 soundfiler;
#X floatatom -320 1118 12 0 0 0 - - -;
#X obj -332 1173 expr 44100 / $f1;
#X floatatom -317 1206 12 0 0 0 - - -;
#X obj -332 1318 phasor~;
#X obj -332 1368 *~;
#X msg -261 1297 0;
#X msg -394 1285 0;
#X text -226 1298 restart at beginning;
#X obj -450 1194 bng 15 250 50 0 empty empty empty 17 7 0 10 -262144
-1 -1;
#X text -485 1192 stop;
#X obj -448 1218 t b b;
#X obj -493 1239 bng 15 250 50 0 empty empty empty 17 7 0 10 -262144
-1 -1;
#X text -547 1285 playback speed;
#X text -529 1238 start;
#X obj -193 1362 metro 50;
#X obj -193 1390 snapshot~;
#X obj -193 1337 tgl 15 0 empty empty empty 17 7 0 10 -262144 -1 -1
1 1;
#X floatatom -193 1417 12 0 0 0 - - -;
#X obj -193 1442 /;
#X floatatom -193 1471 5 0 0 0 - - -;
#X obj -29 1358 hsl 195 15 0 1 0 0 empty empty empty -2 -8 0 10 -262144
-1 -1 0 1;
#X obj -157 1520 moses 0.9;
#X text -169 1539 stop at 0.9/1 playback;
#X obj -428 1742 s~ backleft;
#X obj 411 1725 *~;
#X obj 444 1725 *~;
#X obj 411 1758 dac~ 1 2;
#X obj 489 1574 vsl 15 128 0 1 0 0 empty empty empty 0 -9 0 10 -262144
-1 -1 954 1;
#N canvas 0 22 450 278 (subpatch) 0;
#X array BChannelL 30466 float 2;
#X coords 0 1 30466 -1 200 140 1 0 0;
#X restore 711 1023 graph;
#N canvas 0 22 450 278 (subpatch) 0;
#X array BChannelR 30466 float 2;
#X coords 0 1 30466 -1 200 140 1 0 0;
#X restore 711 1206 graph;
#X obj 411 993 bng 15 250 50 0 empty empty empty 17 7 0 10 -262144
-1 -1;
#X obj 411 1030 openpanel;
#X obj 411 1090 soundfiler;
#X floatatom 423 1129 12 0 0 0 - - -;
#X floatatom 426 1217 12 0 0 0 - - -;
#X obj 411 1329 phasor~;
#X obj 411 1379 *~;
#X msg 482 1308 0;
#X msg 349 1296 0;
#X text 517 1309 restart at beginning;
#X obj 293 1205 bng 15 250 50 0 empty empty empty 17 7 0 10 -262144
-1 -1;
#X text 258 1203 stop;
#X obj 295 1229 t b b;
#X obj 250 1250 bng 15 250 50 0 empty empty empty 17 7 0 10 -262144
-1 -1;
#X text 196 1296 playback speed;
#X text 214 1249 start;
#X obj 550 1373 metro 50;
#X obj 550 1401 snapshot~;
#X obj 550 1348 tgl 15 0 empty empty empty 17 7 0 10 -262144 -1 -1
1 1;
#X floatatom 550 1428 12 0 0 0 - - -;
#X obj 550 1453 /;
#X floatatom 550 1482 5 0 0 0 - - -;
#X obj 714 1369 hsl 195 15 0 1 0 0 empty empty empty -2 -8 0 10 -262144
-1 -1 0 1;
#X obj 586 1531 moses 0.9;
#X text 574 1550 stop at 0.9/1 playback;
#X msg -332 1049 read -resize \$1 AChannelL AChannelR;
#X obj -320 1146 s ASampleSize;
#X obj -307 1346 r ASampleSize;
#X obj -101 1425 r ASampleSize;
#X obj -332 1486 tabread4~ AChannelL;
#X obj -315 1522 tabread4~ AChannelR;
#X obj 423 1157 s BSampleSize;
#X obj 436 1357 r BSampleSize;
#X obj 642 1436 r BSampleSize;
#X obj 411 1497 tabread4~ BChannelL;
#X obj 428 1533 tabread4~ BChannelR;
#X obj 315 1753 s~ frontleft;
#X msg 411 1060 read -resize \$1 BChannelL BChannelR;
#X obj 411 1184 expr 44100 / $f1;
#X obj 1171 1724 *~;
#X obj 1204 1724 *~;
#X obj 1171 1757 dac~ 1 2;
#X obj 1249 1573 vsl 15 128 0 1 0 0 empty empty empty 0 -9 0 10 -262144
-1 -1 954 1;
#N canvas 0 22 450 278 (subpatch) 0;
#X array CChannelL 23888 float 2;
#X coords 0 1 23888 -1 200 140 1 0 0;
#X restore 1471 1022 graph;
#N canvas 0 22 450 278 (subpatch) 0;
#X array CChannelR 23888 float 2;
#X coords 0 1 23888 -1 200 140 1 0 0;
#X restore 1471 1205 graph;
#X obj 1171 992 bng 15 250 50 0 empty empty empty 17 7 0 10 -262144
-1 -1;
#X obj 1171 1029 openpanel;
#X obj 1171 1089 soundfiler;
#X floatatom 1183 1128 12 0 0 0 - - -;
#X floatatom 1186 1216 12 0 0 0 - - -;
#X obj 1171 1328 phasor~;
#X obj 1171 1378 *~;
#X msg 1242 1307 0;
#X msg 1109 1295 0;
#X text 1277 1308 restart at beginning;
#X obj 1053 1204 bng 15 250 50 0 empty empty empty 17 7 0 10 -262144
-1 -1;
#X text 1018 1202 stop;
#X obj 1055 1228 t b b;
#X obj 1010 1249 bng 15 250 50 0 empty empty empty 17 7 0 10 -262144
-1 -1;
#X text 956 1295 playback speed;
#X text 974 1248 start;
#X obj 1310 1372 metro 50;
#X obj 1310 1400 snapshot~;
#X obj 1310 1347 tgl 15 0 empty empty empty 17 7 0 10 -262144 -1 -1
1 1;
#X floatatom 1310 1427 12 0 0 0 - - -;
#X obj 1310 1452 /;
#X floatatom 1310 1481 5 0 0 0 - - -;
#X obj 1474 1368 hsl 195 15 0 1 0 0 empty empty empty -2 -8 0 10 -262144
-1 -1 0 1;
#X obj 1346 1530 moses 0.9;
#X text 1334 1549 stop at 0.9/1 playback;
#X obj 1171 1183 expr 44100 / $f1;
#X msg 1171 1059 read -resize \$1 CChannelL CChannelR;
#X obj 1183 1156 s CSampleSize;
#X obj 1196 1356 r CSampleSize;
#X obj 1402 1435 r CSampleSize;
#X obj 1171 1496 tabread4~ CChannelL;
#X obj 1188 1532 tabread4~ CChannelR;
#X msg -454 1286 0.311111;
#X text -352 948 808 BASS (fm8);
#X text 391 959 KICK DRUM (drake);
#X msg 289 1297 1.44752;
#X obj 1927 1713 *~;
#X obj 1960 1713 *~;
#X obj 1927 1746 dac~ 1 2;
#X obj 2005 1562 vsl 15 128 0 1 0 0 empty empty empty 0 -9 0 10 -262144
-1 -1 954 1;
#N canvas 0 22 450 278 (subpatch) 0;
#X array DChannelL 15772 float 2;
#X coords 0 1 15772 -1 200 140 1 0 0;
#X restore 2227 1011 graph;
#N canvas 0 22 450 278 (subpatch) 0;
#X array DChannelR 15772 float 2;
#X coords 0 1 15772 -1 200 140 1 0 0;
#X restore 2227 1194 graph;
#X obj 1927 981 bng 15 250 50 0 empty empty empty 17 7 0 10 -262144
-1 -1;
#X obj 1927 1018 openpanel;
#X obj 1927 1078 soundfiler;
#X floatatom 1939 1117 12 0 0 0 - - -;
#X floatatom 1942 1205 12 0 0 0 - - -;
#X obj 1927 1317 phasor~;
#X obj 1927 1367 *~;
#X msg 1998 1296 0;
#X msg 1865 1284 0;
#X text 2033 1297 restart at beginning;
#X obj 1809 1193 bng 15 250 50 0 empty empty empty 17 7 0 10 -262144
-1 -1;
#X text 1774 1191 stop;
#X obj 1811 1217 t b b;
#X obj 1766 1238 bng 15 250 50 0 empty empty empty 17 7 0 10 -262144
-1 -1;
#X text 1712 1284 playback speed;
#X text 1730 1237 start;
#X obj 2066 1361 metro 50;
#X obj 2066 1389 snapshot~;
#X obj 2066 1336 tgl 15 0 empty empty empty 17 7 0 10 -262144 -1 -1
1 1;
#X floatatom 2066 1416 12 0 0 0 - - -;
#X obj 2066 1441 /;
#X floatatom 2066 1470 5 0 0 0 - - -;
#X obj 2230 1357 hsl 195 15 0 1 0 0 empty empty empty -2 -8 0 10 -262144
-1 -1 0 1;
#X text 2090 1538 stop at 0.9/1 playback;
#X obj 1927 1172 expr 44100 / $f1;
#X msg 1927 1048 read -resize \$1 DChannelL DChannelR;
#X obj 1939 1145 s DSampleSize;
#X obj 1952 1345 r DSampleSize;
#X obj 2158 1424 r DSampleSize;
#X obj 1927 1485 tabread4~ DChannelL;
#X obj 1944 1521 tabread4~ DChannelR;
#X obj 1075 1752 s~ backright;
#X obj 1831 1741 s~ frontright;
#X text 1907 947 SNAP (lex);
#X msg 1805 1285 2.79609;
#X text 1151 958 CLAP (exclusive);
#X msg 1049 1296 1.84612;
#X obj 2102 1519 moses 0.8;
#X floatatom 631 351 5 0 0 0 - - -;
#X obj 631 323 line;
#X text 468 293 smoothes the y velocity >;
#X msg 631 295 \$1 300;
#X connect 0 0 7 1;
#X connect 1 0 5 1;
#X connect 1 0 12 1;
#X connect 2 0 58 0;
#X connect 2 1 90 0;
#X connect 2 2 135 0;
#X connect 2 3 177 0;
#X connect 3 0 4 0;
#X connect 3 1 11 0;
#X connect 4 0 5 0;
#X connect 5 0 6 0;
#X connect 6 0 9 0;
#X connect 6 1 10 0;
#X connect 7 0 3 0;
#X connect 8 0 7 0;
#X connect 9 0 16 0;
#X connect 10 0 17 0;
#X connect 11 0 12 0;
#X connect 12 0 13 0;
#X connect 13 0 14 0;
#X connect 13 1 15 0;
#X connect 14 0 18 0;
#X connect 15 0 19 0;
#X connect 16 0 2 0;
#X connect 17 0 2 0;
#X connect 18 0 2 0;
#X connect 19 0 2 0;
#X connect 20 0 32 0;
#X connect 21 0 24 0;
#X connect 22 0 25 0;
#X connect 23 0 26 0;
#X connect 24 0 23 0;
#X connect 25 0 23 0;
#X connect 26 0 8 0;
#X connect 27 0 33 0;
#X connect 28 1 29 0;
#X connect 29 0 30 0;
#X connect 30 0 37 0;
#X connect 31 0 205 0;
#X connect 32 0 21 0;
#X connect 32 1 22 0;
#X connect 33 1 34 0;
#X connect 34 0 35 0;
#X connect 35 0 36 0;
#X connect 36 0 28 0;
#X connect 37 0 31 0;
#X connect 38 0 40 0;
#X connect 38 0 70 0;
#X connect 39 0 40 1;
#X connect 41 0 38 1;
#X connect 41 0 39 1;
#X connect 44 0 45 0;
#X connect 45 0 102 0;
#X connect 46 0 47 0;
#X connect 46 0 48 0;
#X connect 47 0 103 0;
#X connect 48 0 49 0;
#X connect 48 0 50 0;
#X connect 50 0 51 0;
#X connect 51 0 62 0;
#X connect 51 0 106 0;
#X connect 51 0 107 0;
#X connect 52 0 50 1;
#X connect 53 0 50 0;
#X connect 55 0 57 0;
#X connect 57 0 52 0;
#X connect 57 1 53 0;
#X connect 58 0 154 0;
#X connect 58 0 52 0;
#X connect 61 0 62 0;
#X connect 62 0 64 0;
#X connect 63 0 61 0;
#X connect 64 0 65 0;
#X connect 65 0 66 0;
#X connect 66 0 67 0;
#X connect 66 0 68 0;
#X connect 68 1 55 0;
#X connect 71 0 73 0;
#X connect 71 0 113 0;
#X connect 72 0 73 1;
#X connect 74 0 71 1;
#X connect 74 0 72 1;
#X connect 77 0 78 0;
#X connect 78 0 114 0;
#X connect 79 0 80 0;
#X connect 79 0 115 0;
#X connect 80 0 108 0;
#X connect 82 0 83 0;
#X connect 83 0 94 0;
#X connect 83 0 111 0;
#X connect 83 0 112 0;
#X connect 84 0 82 1;
#X connect 85 0 82 0;
#X connect 87 0 89 0;
#X connect 89 0 84 0;
#X connect 89 1 85 0;
#X connect 90 0 157 0;
#X connect 90 0 84 0;
#X connect 93 0 94 0;
#X connect 94 0 96 0;
#X connect 95 0 93 0;
#X connect 96 0 97 0;
#X connect 97 0 98 0;
#X connect 98 0 99 0;
#X connect 98 0 100 0;
#X connect 100 1 87 0;
#X connect 102 0 46 0;
#X connect 104 0 51 1;
#X connect 105 0 65 1;
#X connect 106 0 38 0;
#X connect 107 0 39 0;
#X connect 109 0 83 1;
#X connect 110 0 97 1;
#X connect 111 0 71 0;
#X connect 112 0 72 0;
#X connect 114 0 79 0;
#X connect 115 0 81 0;
#X connect 115 0 82 0;
#X connect 116 0 118 0;
#X connect 116 0 195 0;
#X connect 117 0 118 1;
#X connect 119 0 116 1;
#X connect 119 0 117 1;
#X connect 122 0 123 0;
#X connect 123 0 148 0;
#X connect 124 0 125 0;
#X connect 124 0 147 0;
#X connect 125 0 149 0;
#X connect 127 0 128 0;
#X connect 128 0 139 0;
#X connect 128 0 152 0;
#X connect 128 0 153 0;
#X connect 129 0 127 1;
#X connect 130 0 127 0;
#X connect 132 0 134 0;
#X connect 134 0 129 0;
#X connect 134 1 130 0;
#X connect 135 0 200 0;
#X connect 135 0 129 0;
#X connect 138 0 139 0;
#X connect 139 0 141 0;
#X connect 140 0 138 0;
#X connect 141 0 142 0;
#X connect 142 0 143 0;
#X connect 143 0 144 0;
#X connect 143 0 145 0;
#X connect 145 1 132 0;
#X connect 147 0 126 0;
#X connect 147 0 127 0;
#X connect 148 0 124 0;
#X connect 150 0 128 1;
#X connect 151 0 142 1;
#X connect 152 0 116 0;
#X connect 153 0 117 0;
#X connect 154 0 50 0;
#X connect 157 0 82 0;
#X connect 158 0 160 0;
#X connect 158 0 196 0;
#X connect 159 0 160 1;
#X connect 161 0 158 1;
#X connect 161 0 159 1;
#X connect 164 0 165 0;
#X connect 165 0 189 0;
#X connect 166 0 167 0;
#X connect 166 0 188 0;
#X connect 167 0 190 0;
#X connect 169 0 170 0;
#X connect 170 0 181 0;
#X connect 170 0 193 0;
#X connect 170 0 194 0;
#X connect 171 0 169 1;
#X connect 172 0 169 0;
#X connect 174 0 176 0;
#X connect 176 0 171 0;
#X connect 176 1 172 0;
#X connect 177 0 198 0;
#X connect 177 0 171 0;
#X connect 180 0 181 0;
#X connect 181 0 183 0;
#X connect 182 0 180 0;
#X connect 183 0 184 0;
#X connect 184 0 185 0;
#X connect 185 0 186 0;
#X connect 185 0 201 0;
#X connect 188 0 168 0;
#X connect 188 0 169 0;
#X connect 189 0 166 0;
#X connect 191 0 170 1;
#X connect 192 0 184 1;
#X connect 193 0 158 0;
#X connect 194 0 159 0;
#X connect 198 0 169 0;
#X connect 200 0 127 0;
#X connect 201 1 174 0;
#X connect 202 0 41 0;
#X connect 202 0 74 0;
#X connect 202 0 119 0;
#X connect 202 0 161 0;
#X connect 203 0 202 0;
#X connect 205 0 203 0;
#X restore 143 764 pd multipad;
#X obj 369 206 s x_palm;
#X obj 625 208 s z_palm;
#X obj 503 205 s y_palm;
#X obj 90 473 s y_fingers;
#X obj 95 507 s x_fingers;
#X obj 288 752 average;
#X obj 448 78 route palm_position palm_velocity;
#X obj 551 112 s palm_velocity;
#X obj 1014 393 moses 20;
#X obj 305 587 s backwallx;
#X obj 414 587 s backwally;
#X floatatom 600 451 5 0 0 0 - - -;
#X text 607 1554 not being used;
#X text 761 688 disconnected this temporarily >;
#X text 585 149 back wall;
#X text 752 172 lift up hand for high hat;
#X text 405 240 back wall;
#X text 292 241 back wall;
#X connect 0 0 1 0;
#X connect 1 0 55 0;
#X connect 1 0 204 0;
#X connect 2 0 3 0;
#X connect 2 1 4 0;
#X connect 2 2 5 0;
#X connect 3 0 6 0;
#X connect 3 0 176 0;
#X connect 3 0 198 0;
#X connect 4 0 8 0;
#X connect 4 0 146 0;
#X connect 4 0 172 0;
#X connect 4 0 200 0;
#X connect 5 0 9 0;
#X connect 5 0 199 0;
#X connect 6 0 7 0;
#X connect 7 0 196 0;
#X connect 8 0 10 0;
#X connect 9 0 11 0;
#X connect 11 0 185 0;
#X connect 12 0 44 0;
#X connect 13 0 60 0;
#X connect 14 0 53 0;
#X connect 15 0 54 0;
#X connect 16 0 164 0;
#X connect 16 0 22 0;
#X connect 16 0 181 0;
#X connect 17 0 19 0;
#X connect 18 0 21 1;
#X connect 19 0 21 0;
#X connect 21 0 23 0;
#X connect 22 0 18 0;
#X connect 23 0 20 0;
#X connect 23 0 20 1;
#X connect 25 0 29 0;
#X connect 26 0 29 1;
#X connect 29 0 191 0;
#X connect 31 0 26 0;
#X connect 32 0 31 0;
#X connect 33 0 35 0;
#X connect 34 0 35 1;
#X connect 35 0 38 0;
#X connect 37 0 36 0;
#X connect 37 0 36 1;
#X connect 38 0 37 0;
#X connect 39 0 34 0;
#X connect 41 0 39 0;
#X connect 42 0 46 0;
#X connect 42 0 47 0;
#X connect 43 0 45 0;
#X connect 44 0 42 0;
#X connect 45 0 42 0;
#X connect 47 1 32 0;
#X connect 51 0 52 0;
#X connect 53 0 51 0;
#X connect 54 0 51 0;
#X connect 55 0 56 0;
#X connect 56 0 57 0;
#X connect 56 1 73 0;
#X connect 56 2 68 0;
#X connect 56 3 78 0;
#X connect 56 4 83 0;
#X connect 57 0 63 0;
#X connect 58 0 61 0;
#X connect 59 0 62 0;
#X connect 60 0 59 0;
#X connect 61 0 59 0;
#X connect 62 1 41 0;
#X connect 63 0 64 0;
#X connect 63 1 108 0;
#X connect 64 0 65 0;
#X connect 65 0 66 0;
#X connect 66 0 67 0;
#X connect 67 0 89 0;
#X connect 68 0 69 0;
#X connect 69 0 70 0;
#X connect 69 1 112 0;
#X connect 70 0 71 0;
#X connect 71 0 72 0;
#X connect 72 0 88 0;
#X connect 73 0 74 0;
#X connect 74 0 75 0;
#X connect 74 1 115 0;
#X connect 75 0 76 0;
#X connect 76 0 77 0;
#X connect 77 0 67 1;
#X connect 78 0 79 0;
#X connect 79 0 80 0;
#X connect 79 1 118 0;
#X connect 80 0 81 0;
#X connect 81 0 82 0;
#X connect 82 0 88 1;
#X connect 83 0 84 0;
#X connect 84 0 85 0;
#X connect 84 1 121 0;
#X connect 85 0 86 0;
#X connect 86 0 87 0;
#X connect 87 0 90 0;
#X connect 88 0 89 1;
#X connect 89 0 195 0;
#X connect 90 0 195 1;
#X connect 91 0 92 0;
#X connect 92 2 93 0;
#X connect 92 3 97 0;
#X connect 92 3 98 0;
#X connect 92 3 99 0;
#X connect 92 3 100 0;
#X connect 92 3 101 0;
#X connect 92 3 94 0;
#X connect 93 0 96 0;
#X connect 96 0 95 0;
#X connect 97 0 103 0;
#X connect 98 0 104 0;
#X connect 99 0 105 0;
#X connect 100 0 106 0;
#X connect 103 0 85 0;
#X connect 104 0 85 0;
#X connect 104 0 80 0;
#X connect 105 0 85 0;
#X connect 105 0 80 0;
#X connect 105 0 70 0;
#X connect 106 0 85 0;
#X connect 106 0 80 0;
#X connect 106 0 70 0;
#X connect 106 0 75 0;
#X connect 107 0 85 0;
#X connect 107 0 80 0;
#X connect 107 0 70 0;
#X connect 107 0 75 0;
#X connect 107 0 64 0;
#X connect 108 0 109 0;
#X connect 109 0 110 0;
#X connect 110 0 111 0;
#X connect 111 0 125 0;
#X connect 112 0 113 0;
#X connect 113 0 114 0;
#X connect 114 0 124 0;
#X connect 115 0 116 0;
#X connect 116 0 117 0;
#X connect 117 0 111 1;
#X connect 118 0 119 0;
#X connect 119 0 120 0;
#X connect 120 0 124 1;
#X connect 121 0 122 0;
#X connect 122 0 123 0;
#X connect 123 0 126 1;
#X connect 124 0 125 1;
#X connect 125 0 126 0;
#X connect 126 0 201 0;
#X connect 128 0 129 0;
#X connect 129 0 134 0;
#X connect 130 0 133 0;
#X connect 131 0 128 0;
#X connect 132 0 135 0;
#X connect 133 0 43 0;
#X connect 133 0 102 0;
#X connect 133 1 12 0;
#X connect 134 0 130 0;
#X connect 135 0 136 0;
#X connect 136 0 189 0;
#X connect 137 0 140 0;
#X connect 138 0 14 0;
#X connect 138 1 15 0;
#X connect 139 0 131 1;
#X connect 139 0 150 0;
#X connect 140 0 141 0;
#X connect 141 0 145 0;
#X connect 142 0 143 0;
#X connect 143 0 144 0;
#X connect 145 0 147 0;
#X connect 145 0 206 0;
#X connect 145 1 148 0;
#X connect 146 0 132 0;
#X connect 148 0 149 0;
#X connect 149 0 152 0;
#X connect 150 0 151 0;
#X connect 151 0 152 0;
#X connect 152 0 153 0;
#X connect 153 0 127 0;
#X connect 153 1 127 0;
#X connect 154 0 155 0;
#X connect 156 0 157 0;
#X connect 158 0 159 0;
#X connect 159 0 161 0;
#X connect 161 0 162 0;
#X connect 164 0 19 1;
#X connect 165 0 166 0;
#X connect 166 0 178 0;
#X connect 167 0 168 0;
#X connect 168 0 178 0;
#X connect 169 0 174 0;
#X connect 170 0 171 0;
#X connect 171 1 173 0;
#X connect 172 0 170 0;
#X connect 173 0 182 1;
#X connect 174 1 175 0;
#X connect 175 0 188 0;
#X connect 176 0 169 0;
#X connect 177 0 187 0;
#X connect 177 0 183 0;
#X connect 178 0 179 0;
#X connect 179 0 209 0;
#X connect 180 0 207 0;
#X connect 181 0 17 0;
#X connect 182 0 184 0;
#X connect 183 0 182 0;
#X connect 184 0 208 0;
#X connect 185 0 165 0;
#X connect 185 0 177 0;
#X connect 185 1 167 0;
#X connect 186 0 180 0;
#X connect 187 0 186 0;
#X connect 188 0 186 1;
#X connect 189 0 137 0;
#X connect 190 0 191 1;
#X connect 191 0 27 0;
#X connect 191 0 27 1;
#X connect 191 0 163 0;
#X connect 192 0 23 1;
#X connect 193 0 37 1;
#X connect 194 0 58 0;
#X connect 194 1 13 0;
#X connect 195 0 202 0;
#X connect 196 0 90 1;
#X connect 204 0 2 0;
#X connect 204 1 205 0;
#X connect 206 0 148 0;
#X connect 206 1 139 0;
#X connect 209 0 208 0;
#X connect 209 0 207 0;
