#N canvas 22 27 1677 924 10;
#X obj 465 -3 r hand;
#X obj 465 44 route 0;
#X obj 448 98 route palm_position;
#X obj 449 142 unpack f f f;
#X floatatom 355 168 5 0 0 0 - - -;
#X floatatom 482 170 5 0 0 0 - - -;
#X floatatom 657 161 5 0 0 0 - - -;
#X obj 352 196 / 1000;
#X floatatom 210 240 10 0 0 0 - - -;
#X obj 482 195 / 1000;
#X obj 657 185 / 1000;
#X floatatom 482 220 10 0 0 0 - - -;
#X floatatom 657 213 10 0 0 0 - - -;
#X obj -340 775 dac~;
#X obj -338 738 *~;
#X obj -250 653 vsl 15 128 0 127 0 0 empty empty empty 0 -9 0 10 -262144
-1 -1 0 1;
#X msg -276 617 0;
#X msg -222 614 0.25;
#X obj -338 586 osc~ 500;
#X obj 912 407 bng 15 250 50 0 empty empty empty 17 7 0 10 -262144
-1 -1;
#X obj 51 541 bng 15 250 50 0 empty empty empty 17 7 0 10 -262144 -1
-1;
#X obj 468 266 bng 15 250 50 0 empty empty empty 17 7 0 10 -262144
-1 -1;
#X obj 548 267 bng 15 250 50 0 empty empty empty 17 7 0 10 -262144
-1 -1;
#X obj 515 389 bng 15 250 50 0 empty empty empty 17 7 0 10 -262144
-1 -1;
#X obj 438 481 line~;
#X obj 610 449 line~;
#X obj 523 481 osc~;
#X obj 526 575 dac~;
#X obj 524 510 *~;
#X msg 610 423 1 \, 0 50;
#X obj 525 538 *~ 0.5;
#X text 562 419 Bass;
#X obj 790 575 noise~;
#X obj 837 575 line~;
#X obj 785 730 dac~;
#X text 733 609 Generates ramp from 2 values;
#X obj 785 660 *~;
#X text 920 543 HiHat;
#X msg 837 544 0.6 \, 0 75;
#X obj 835 517 bng 15 250 50 0 empty empty empty 17 7 0 10 -262144
-1 -1;
#X obj 7 705 noise~;
#X obj 57 706 line~;
#X obj 7 741 *~;
#X obj -1 823 dac~;
#X obj 7 796 *~ 1;
#X obj 7 769 lop~ 400;
#X msg 57 674 3 \, 0 50;
#X text 58 738 Snare;
#X obj 33 639 bng 15 250 50 0 empty empty empty 17 7 0 10 -262144 -1
-1;
#X obj 857 449 change;
#X obj 842 404 bng 15 250 50 0 empty empty empty 17 7 0 10 -262144
-1 -1;
#X msg 921 429 0;
#X msg 827 426 1;
#X floatatom 870 477 5 0 0 0 - - -;
#X obj 786 488 moses 0.5;
#X text 693 419 if < -0.2 bang a 1;
#X text 670 471 if it's a 1 \, bang;
#X obj 367 772 leapmotion;
#X obj 493 314 change;
#X obj 493 342 moses 0.5;
#X msg 462 288 1;
#X msg 545 288 0;
#X obj -24 114 route fingers;
#X obj -132 158 route 0 1 2 3 4;
#X obj -343 188 route position;
#X obj 1 545 bng 15 250 50 0 empty empty empty 17 7 0 10 -262144 -1
-1;
#X obj 20 595 change;
#X msg 62 567 1;
#X msg -13 570 0;
#X obj 31 617 moses 0.5;
#X obj -343 215 unpack f f f;
#X floatatom -343 238 5 0 0 0 - - -;
#X obj -342 263 / 1000;
#X floatatom -342 295 5 0 0 0 - - -;
#X obj -266 357 min;
#X obj -124 190 route position;
#X obj -124 217 unpack f f f;
#X floatatom -124 240 5 0 0 0 - - -;
#X obj -123 265 / 1000;
#X floatatom -123 297 5 0 0 0 - - -;
#X obj -231 190 route position;
#X obj -231 217 unpack f f f;
#X floatatom -231 240 5 0 0 0 - - -;
#X obj -230 265 / 1000;
#X floatatom -230 297 5 0 0 0 - - -;
#X obj -24 190 route position;
#X obj -24 217 unpack f f f;
#X floatatom -24 240 5 0 0 0 - - -;
#X obj -23 265 / 1000;
#X floatatom -23 297 5 0 0 0 - - -;
#X obj 76 190 route position;
#X obj 76 217 unpack f f f;
#X floatatom 76 240 5 0 0 0 - - -;
#X obj 77 265 / 1000;
#X floatatom 77 297 5 0 0 0 - - -;
#X obj -55 348 min;
#X obj -164 387 min;
#X obj 72 377 min;
#X obj -295 0 r general;
#X obj -286 32 unpack f f f f f f;
#X obj -355 11 == 0;
#X floatatom -320 83 5 0 0 0 - - -;
#X msg -359 55 0;
#X obj -358 34 trigger b;
#X obj -250 69 == 4;
#X obj -213 66 == 3;
#X obj -171 67 == 2;
#X obj -133 68 == 1;
#X obj -99 67 == 0;
#X floatatom 787 391 5 0 0 0 - - -;
#X msg -254 109 0;
#X msg -210 107 0;
#X msg -172 109 0;
#X msg -131 107 0;
#X msg -89 105 0;
#X floatatom -291 236 5 0 0 0 - - -;
#X obj -290 261 / 1000;
#X floatatom -290 293 5 0 0 0 - - -;
#X obj -214 355 min;
#X floatatom -72 238 5 0 0 0 - - -;
#X obj -71 263 / 1000;
#X floatatom -71 295 5 0 0 0 - - -;
#X floatatom -179 238 5 0 0 0 - - -;
#X obj -178 263 / 1000;
#X floatatom -178 295 5 0 0 0 - - -;
#X floatatom 28 238 5 0 0 0 - - -;
#X obj 29 263 / 1000;
#X floatatom 29 295 5 0 0 0 - - -;
#X floatatom 128 238 5 0 0 0 - - -;
#X obj 129 263 / 1000;
#X floatatom 129 295 5 0 0 0 - - -;
#X obj -3 346 min;
#X obj -112 385 min;
#X obj 72 429 min;
#X obj 792 170 tgl 15 0 empty empty empty 17 7 0 10 -262144 -1 -1 0
1;
#X obj 791 239 counter;
#X floatatom 791 272 10 0 0 0 - - -;
#X floatatom 791 334 5 0 0 0 - - -;
#X obj 792 205 metro 500;
#X floatatom 809 130 5 0 0 0 - - -;
#X obj 855 380 moses 0.5;
#X obj 791 303 % 2;
#X obj 877 156 * -1;
#X floatatom 904 195 5 0 0 0 - - -;
#X floatatom 967 194 5 0 0 0 - - -;
#X obj 482 243 moses 0.1;
#X floatatom 1082 330 5 0 0 0 - - -;
#X obj 1046 278 moses 50;
#X obj 959 227 / 1.5;
#X floatatom 978 254 5 0 0 0 - - -;
#X obj 662 11 r gesture;
#X obj 669 50 route 0;
#X obj 678 81 route type;
#X obj 1014 235 moses 240;
#X obj 818 93 int;
#X floatatom 1170 249 5 0 0 0 - - -;
#X obj 1179 312 bng 15 250 50 0 empty empty empty 17 7 0 10 -262144
-1 -1;
#X msg 1119 428 0;
#X obj 1083 386 bng 15 250 50 0 empty empty empty 17 7 0 10 -262144
-1 -1;
#X msg 1072 446 1;
#X obj 1094 483 change;
#X obj 1094 511 moses 0.5;
#X obj 467 583 s~ bass;
#X obj 45 821 s~ snare;
#X obj 562 771 keyup;
#X floatatom 564 816 5 0 0 0 - - -;
#X obj 525 771 key;
#X floatatom 517 816 5 0 0 0 - - -;
#X obj 629 773 key;
#X obj 630 803 select 114;
#X msg 722 824;
#X obj 631 840 bng 15 250 50 0 empty empty empty 17 7 0 10 -262144
-1 -1;
#X obj 637 870 s recordtoggle;
#X obj 719 740 s~ hihat;
#X msg 544 456 0.5;
#X obj 659 283 bng 15 250 50 0 empty empty empty 17 7 0 10 -262144
-1 -1;
#X msg 656 310 1;
#X obj 717 282 bng 15 250 50 0 empty empty empty 17 7 0 10 -262144
-1 -1;
#X msg 711 310 0;
#X floatatom 327 250 5 0 0 0 - - -;
#X floatatom 419 284 5 0 0 0 - - -;
#X obj 413 321 moses 0;
#X obj 419 236 - 100;
#X floatatom 434 354 5 0 0 0 - - -;
#X obj 324 284 moses 0;
#X floatatom 356 319 5 0 0 0 - - -;
#X obj 331 223 + 150;
#X obj 630 374 bng 15 250 50 0 empty empty empty 17 7 0 10 -262144
-1 -1;
#X obj 677 340 change;
#X obj 688 362 moses 0.5;
#X floatatom 309 424 5 0 0 0 - - -;
#X obj 321 471 pack f f;
#X obj 401 413 + 0;
#X msg 392 380 0;
#X floatatom 395 454 5 0 0 0 - - -;
#X obj 662 251 moses -0.1;
#X obj 315 383 +;
#X msg 306 350 0;
#X obj 359 368 * 3;
#X obj 966 154 + 700;
#X obj 863 650 vsl 15 128 0 1 0 0 empty empty empty 0 -9 0 10 -262144
-1 -1 0 1;
#X obj 785 689 *~;
#X obj 609 554 vsl 15 64 0 1 0 0 empty empty empty 0 -9 0 10 -262144
-1 -1 0 1;
#X obj 127 688 vsl 15 128 0 1 0 0 empty empty empty 0 -9 0 10 -262144
-1 -1 0 1;
#X obj -1 507 moses -0.18;
#X obj 30 450 min;
#X obj 149 343 - 0.02;
#N canvas 954 35 958 966 multipad 0;
#X obj 127 46 r x_palm;
#X obj 330 49 r y_palm;
#X obj 471 51 r z_palm;
#X obj 46 95 moses 0;
#X obj 44 139 bng 15 250 50 0 empty empty empty 17 7 0 10 -262144 -1
-1;
#X msg 41 166 1;
#X obj 102 138 bng 15 250 50 0 empty empty empty 17 7 0 10 -262144
-1 -1;
#X msg 96 166 0;
#X obj 62 196 change;
#X obj 151 93 moses 0;
#X obj 149 137 bng 15 250 50 0 empty empty empty 17 7 0 10 -262144
-1 -1;
#X obj 207 136 bng 15 250 50 0 empty empty empty 17 7 0 10 -262144
-1 -1;
#X obj 167 194 change;
#X msg 201 164 1;
#X msg 146 164 0;
#X obj 440 108 moses 0;
#X obj 438 152 bng 15 250 50 0 empty empty empty 17 7 0 10 -262144
-1 -1;
#X msg 435 179 1;
#X obj 496 151 bng 15 250 50 0 empty empty empty 17 7 0 10 -262144
-1 -1;
#X msg 490 179 0;
#X obj 456 209 change;
#X obj 545 106 moses 0;
#X obj 543 150 bng 15 250 50 0 empty empty empty 17 7 0 10 -262144
-1 -1;
#X obj 601 149 bng 15 250 50 0 empty empty empty 17 7 0 10 -262144
-1 -1;
#X obj 561 207 change;
#X msg 595 177 1;
#X msg 540 177 0;
#X obj 355 681 select 0 1 2 3;
#X obj 758 681 bng 15 250 50 0 empty empty empty 17 7 0 10 -262144
-1 -1;
#X obj 717 742 line~;
#X obj 836 739 line~;
#X obj 766 773 osc~;
#X obj 769 867 dac~;
#X obj 767 802 *~;
#X msg 836 713 1 \, 0 50;
#X obj 768 830 *~ 0.5;
#X text 805 711 Bass;
#X obj 710 875 s~ bass;
#X msg 787 748 0.5;
#X obj 872 782 vsl 15 64 0 1 0 0 empty empty empty 0 -9 0 10 -262144
-1 -1 0 1;
#X msg 639 700 1000 \, 750 500;
#X obj 554 726 bng 15 250 50 0 empty empty empty 17 7 0 10 -262144
-1 -1;
#X obj 513 787 line~;
#X obj 632 784 line~;
#X obj 562 818 osc~;
#X obj 565 912 dac~;
#X obj 563 847 *~;
#X msg 632 758 1 \, 0 50;
#X obj 564 875 *~ 0.5;
#X text 601 756 Bass;
#X obj 506 920 s~ bass;
#X msg 583 793 0.5;
#X obj 668 827 vsl 15 64 0 1 0 0 empty empty empty 0 -9 0 10 -262144
-1 -1 0 1;
#X msg 435 745 1000 \, 750 500;
#X obj 3 735 bng 15 250 50 0 empty empty empty 17 7 0 10 -262144 -1
-1;
#X obj -38 796 line~;
#X obj 81 793 line~;
#X obj 11 827 osc~;
#X obj 14 921 dac~;
#X obj 12 856 *~;
#X msg 81 767 1 \, 0 50;
#X obj 13 884 *~ 0.5;
#X text 50 765 Bass;
#X obj -45 929 s~ bass;
#X msg 32 802 0.5;
#X obj 117 836 vsl 15 64 0 1 0 0 empty empty empty 0 -9 0 10 -262144
-1 -1 0 1;
#X msg -116 754 1000 \, 750 500;
#X obj 282 743 bng 15 250 50 0 empty empty empty 17 7 0 10 -262144
-1 -1;
#X obj 241 804 line~;
#X obj 360 801 line~;
#X obj 290 835 osc~;
#X obj 293 929 dac~;
#X obj 291 864 *~;
#X msg 360 775 1 \, 0 50;
#X obj 292 892 *~ 0.5;
#X text 329 773 Bass;
#X obj 234 937 s~ bass;
#X msg 311 810 0.5;
#X obj 396 844 vsl 15 64 0 1 0 0 empty empty empty 0 -9 0 10 -262144
-1 -1 0 1;
#X msg 163 762 1000 \, 750 500;
#X floatatom 199 241 5 0 0 0 - - -;
#X floatatom 86 240 5 0 0 0 - - -;
#X floatatom 494 239 5 0 0 0 - - -;
#X floatatom 597 250 5 0 0 0 - - -;
#X floatatom 360 623 5 0 0 0 - - -;
#X obj 346 291 >=;
#X obj 418 292 >=;
#X obj 264 292 >=;
#X obj 174 295 >=;
#X msg 198 382 0;
#X msg 347 374 2;
#X msg 409 372 3;
#X floatatom 308 480 5 0 0 0 - - -;
#X floatatom 181 320 5 0 0 0 - - -;
#X obj 189 348 bng 15 250 50 0 empty empty empty 17 7 0 10 -262144
-1 -1;
#X floatatom 345 319 5 0 0 0 - - -;
#X obj 353 347 bng 15 250 50 0 empty empty empty 17 7 0 10 -262144
-1 -1;
#X floatatom 420 315 5 0 0 0 - - -;
#X obj 428 343 bng 15 250 50 0 empty empty empty 17 7 0 10 -262144
-1 -1;
#X floatatom 261 323 5 0 0 0 - - -;
#X obj 269 351 bng 15 250 50 0 empty empty empty 17 7 0 10 -262144
-1 -1;
#X msg 266 386 0;
#X connect 0 0 3 0;
#X connect 0 0 9 0;
#X connect 2 0 15 0;
#X connect 2 0 21 0;
#X connect 3 0 4 0;
#X connect 3 1 6 0;
#X connect 4 0 5 0;
#X connect 5 0 8 0;
#X connect 6 0 7 0;
#X connect 7 0 8 0;
#X connect 8 0 81 0;
#X connect 9 0 10 0;
#X connect 9 1 11 0;
#X connect 10 0 14 0;
#X connect 11 0 13 0;
#X connect 12 0 80 0;
#X connect 13 0 12 0;
#X connect 14 0 12 0;
#X connect 15 0 16 0;
#X connect 15 1 18 0;
#X connect 16 0 17 0;
#X connect 17 0 20 0;
#X connect 18 0 19 0;
#X connect 19 0 20 0;
#X connect 20 0 82 0;
#X connect 21 0 22 0;
#X connect 21 1 23 0;
#X connect 22 0 26 0;
#X connect 23 0 25 0;
#X connect 24 0 83 0;
#X connect 25 0 24 0;
#X connect 26 0 24 0;
#X connect 27 0 54 0;
#X connect 27 1 67 0;
#X connect 27 2 41 0;
#X connect 27 3 28 0;
#X connect 28 0 38 0;
#X connect 28 0 34 0;
#X connect 29 0 31 0;
#X connect 30 0 33 1;
#X connect 31 0 33 0;
#X connect 33 0 35 0;
#X connect 34 0 30 0;
#X connect 35 0 32 0;
#X connect 35 0 32 1;
#X connect 35 0 37 0;
#X connect 38 0 31 1;
#X connect 39 0 35 1;
#X connect 40 0 29 0;
#X connect 41 0 51 0;
#X connect 41 0 47 0;
#X connect 42 0 44 0;
#X connect 43 0 46 1;
#X connect 44 0 46 0;
#X connect 46 0 48 0;
#X connect 47 0 43 0;
#X connect 48 0 45 0;
#X connect 48 0 45 1;
#X connect 48 0 50 0;
#X connect 51 0 44 1;
#X connect 52 0 48 1;
#X connect 53 0 42 0;
#X connect 54 0 64 0;
#X connect 54 0 60 0;
#X connect 55 0 57 0;
#X connect 56 0 59 1;
#X connect 57 0 59 0;
#X connect 59 0 61 0;
#X connect 60 0 56 0;
#X connect 61 0 58 0;
#X connect 61 0 58 1;
#X connect 61 0 63 0;
#X connect 64 0 57 1;
#X connect 65 0 61 1;
#X connect 66 0 55 0;
#X connect 67 0 77 0;
#X connect 67 0 73 0;
#X connect 68 0 70 0;
#X connect 69 0 72 1;
#X connect 70 0 72 0;
#X connect 72 0 74 0;
#X connect 73 0 69 0;
#X connect 74 0 71 0;
#X connect 74 0 71 1;
#X connect 74 0 76 0;
#X connect 77 0 70 1;
#X connect 78 0 74 1;
#X connect 79 0 68 0;
#X connect 80 0 85 0;
#X connect 80 0 86 0;
#X connect 81 0 88 0;
#X connect 81 0 87 0;
#X connect 82 0 85 1;
#X connect 82 0 88 1;
#X connect 83 0 86 1;
#X connect 83 0 87 1;
#X connect 87 0 99 0;
#X connect 88 0 93 0;
#X connect 89 0 92 0;
#X connect 90 0 92 0;
#X connect 91 0 92 0;
#X connect 93 0 94 0;
#X connect 94 0 89 0;
#X connect 95 0 96 0;
#X connect 97 0 98 0;
#X connect 99 0 100 0;
#X connect 100 0 101 0;
#X connect 101 0 92 0;
#X restore 223 827 pd multipad;
#X obj 267 191 s x_palm;
#X obj 595 239 s z_palm;
#X obj 552 195 s y_palm;
#X connect 0 0 1 0;
#X connect 1 0 2 0;
#X connect 1 0 62 0;
#X connect 2 0 3 0;
#X connect 3 0 4 0;
#X connect 3 1 5 0;
#X connect 3 2 6 0;
#X connect 4 0 7 0;
#X connect 4 0 186 0;
#X connect 4 0 208 0;
#X connect 5 0 9 0;
#X connect 5 0 154 0;
#X connect 5 0 182 0;
#X connect 5 0 210 0;
#X connect 6 0 10 0;
#X connect 6 0 209 0;
#X connect 7 0 8 0;
#X connect 8 0 206 0;
#X connect 9 0 11 0;
#X connect 10 0 12 0;
#X connect 12 0 195 0;
#X connect 14 0 13 0;
#X connect 14 0 13 1;
#X connect 15 0 14 1;
#X connect 16 0 15 0;
#X connect 17 0 15 0;
#X connect 18 0 14 0;
#X connect 19 0 51 0;
#X connect 20 0 67 0;
#X connect 21 0 60 0;
#X connect 22 0 61 0;
#X connect 23 0 174 0;
#X connect 23 0 29 0;
#X connect 23 0 191 0;
#X connect 24 0 26 0;
#X connect 25 0 28 1;
#X connect 26 0 28 0;
#X connect 28 0 30 0;
#X connect 29 0 25 0;
#X connect 30 0 27 0;
#X connect 30 0 27 1;
#X connect 30 0 162 0;
#X connect 32 0 36 0;
#X connect 33 0 36 1;
#X connect 36 0 201 0;
#X connect 38 0 33 0;
#X connect 39 0 38 0;
#X connect 40 0 42 0;
#X connect 41 0 42 1;
#X connect 42 0 45 0;
#X connect 44 0 43 0;
#X connect 44 0 43 1;
#X connect 44 0 163 0;
#X connect 45 0 44 0;
#X connect 46 0 41 0;
#X connect 48 0 46 0;
#X connect 49 0 53 0;
#X connect 49 0 54 0;
#X connect 50 0 52 0;
#X connect 51 0 49 0;
#X connect 52 0 49 0;
#X connect 54 1 39 0;
#X connect 58 0 59 0;
#X connect 59 0 23 0;
#X connect 60 0 58 0;
#X connect 61 0 58 0;
#X connect 62 0 63 0;
#X connect 63 0 64 0;
#X connect 63 1 80 0;
#X connect 63 2 75 0;
#X connect 63 3 85 0;
#X connect 63 4 90 0;
#X connect 64 0 70 0;
#X connect 65 0 68 0;
#X connect 66 0 69 0;
#X connect 67 0 66 0;
#X connect 68 0 66 0;
#X connect 69 1 48 0;
#X connect 70 0 71 0;
#X connect 70 1 115 0;
#X connect 71 0 72 0;
#X connect 72 0 73 0;
#X connect 73 0 74 0;
#X connect 74 0 96 0;
#X connect 75 0 76 0;
#X connect 76 0 77 0;
#X connect 76 1 119 0;
#X connect 77 0 78 0;
#X connect 78 0 79 0;
#X connect 79 0 95 0;
#X connect 80 0 81 0;
#X connect 81 0 82 0;
#X connect 81 1 122 0;
#X connect 82 0 83 0;
#X connect 83 0 84 0;
#X connect 84 0 74 1;
#X connect 85 0 86 0;
#X connect 86 0 87 0;
#X connect 86 1 125 0;
#X connect 87 0 88 0;
#X connect 88 0 89 0;
#X connect 89 0 95 1;
#X connect 90 0 91 0;
#X connect 91 0 92 0;
#X connect 91 1 128 0;
#X connect 92 0 93 0;
#X connect 93 0 94 0;
#X connect 94 0 97 0;
#X connect 95 0 96 1;
#X connect 96 0 205 0;
#X connect 97 0 205 1;
#X connect 98 0 99 0;
#X connect 99 2 100 0;
#X connect 99 3 104 0;
#X connect 99 3 105 0;
#X connect 99 3 106 0;
#X connect 99 3 107 0;
#X connect 99 3 108 0;
#X connect 99 3 101 0;
#X connect 100 0 103 0;
#X connect 103 0 102 0;
#X connect 104 0 110 0;
#X connect 105 0 111 0;
#X connect 106 0 112 0;
#X connect 107 0 113 0;
#X connect 110 0 92 0;
#X connect 111 0 92 0;
#X connect 111 0 87 0;
#X connect 112 0 92 0;
#X connect 112 0 87 0;
#X connect 112 0 77 0;
#X connect 113 0 92 0;
#X connect 113 0 87 0;
#X connect 113 0 77 0;
#X connect 113 0 82 0;
#X connect 114 0 92 0;
#X connect 114 0 87 0;
#X connect 114 0 77 0;
#X connect 114 0 82 0;
#X connect 114 0 71 0;
#X connect 115 0 116 0;
#X connect 116 0 117 0;
#X connect 117 0 118 0;
#X connect 118 0 132 0;
#X connect 119 0 120 0;
#X connect 120 0 121 0;
#X connect 121 0 131 0;
#X connect 122 0 123 0;
#X connect 123 0 124 0;
#X connect 124 0 118 1;
#X connect 125 0 126 0;
#X connect 126 0 127 0;
#X connect 127 0 131 1;
#X connect 128 0 129 0;
#X connect 129 0 130 0;
#X connect 130 0 133 1;
#X connect 131 0 132 1;
#X connect 132 0 133 0;
#X connect 133 0 145 0;
#X connect 134 0 138 0;
#X connect 135 0 136 0;
#X connect 136 0 141 0;
#X connect 137 0 140 0;
#X connect 138 0 135 0;
#X connect 139 0 142 0;
#X connect 140 0 50 0;
#X connect 140 0 109 0;
#X connect 140 1 19 0;
#X connect 141 0 137 0;
#X connect 142 0 143 0;
#X connect 143 0 199 0;
#X connect 144 0 148 0;
#X connect 145 0 21 0;
#X connect 145 1 22 0;
#X connect 146 0 138 1;
#X connect 146 0 158 0;
#X connect 147 0 156 0;
#X connect 147 1 146 0;
#X connect 148 0 149 0;
#X connect 149 0 153 0;
#X connect 150 0 151 0;
#X connect 151 0 152 0;
#X connect 153 0 147 0;
#X connect 153 0 155 0;
#X connect 153 1 156 0;
#X connect 154 0 139 0;
#X connect 156 0 157 0;
#X connect 157 0 160 0;
#X connect 158 0 159 0;
#X connect 159 0 160 0;
#X connect 160 0 161 0;
#X connect 161 0 134 0;
#X connect 161 1 134 0;
#X connect 164 0 165 0;
#X connect 166 0 167 0;
#X connect 168 0 169 0;
#X connect 169 0 171 0;
#X connect 171 0 172 0;
#X connect 174 0 26 1;
#X connect 175 0 176 0;
#X connect 176 0 188 0;
#X connect 177 0 178 0;
#X connect 178 0 188 0;
#X connect 179 0 184 0;
#X connect 180 0 181 0;
#X connect 181 1 183 0;
#X connect 182 0 180 0;
#X connect 183 0 192 1;
#X connect 184 1 185 0;
#X connect 185 0 198 0;
#X connect 186 0 179 0;
#X connect 187 0 197 0;
#X connect 187 0 193 0;
#X connect 188 0 189 0;
#X connect 189 0 187 0;
#X connect 190 0 191 0;
#X connect 191 0 24 0;
#X connect 192 0 194 0;
#X connect 193 0 192 0;
#X connect 194 0 191 1;
#X connect 195 0 175 0;
#X connect 195 1 177 0;
#X connect 196 0 190 0;
#X connect 197 0 196 0;
#X connect 198 0 196 1;
#X connect 199 0 144 0;
#X connect 200 0 201 1;
#X connect 201 0 34 0;
#X connect 201 0 34 1;
#X connect 201 0 173 0;
#X connect 202 0 30 1;
#X connect 203 0 44 1;
#X connect 204 0 65 0;
#X connect 204 1 20 0;
#X connect 205 0 204 0;
#X connect 206 0 97 1;
