#N canvas 610 23 637 637 10;
#X obj 181 43 r hand;
#X obj 181 90 route 0;
#X obj 164 144 route palm_position;
#X obj 165 188 unpack f f f;
#X floatatom 144 234 5 0 0 0 - - -, f 5;
#X floatatom 197 234 5 0 0 0 - - -, f 5;
#X floatatom 249 233 5 0 0 0 - - -, f 5;
#X obj 143 270 / 1000;
#X floatatom 128 312 10 0 0 0 - - -, f 10;
#X obj 209 269 / 1000;
#X obj 280 270 / 1000;
#X floatatom 212 312 10 0 0 0 - - -, f 10;
#X floatatom 292 314 10 0 0 0 - - -, f 10;
#X obj 64 399 bng 15 250 50 0 empty empty empty 17 7 0 10 -262144 -1
-1;
#X obj 83 360 moses -0.2;
#X obj 143 653 dac~;
#X obj 145 616 *~;
#X obj 233 531 vsl 15 128 0 127 0 0 empty empty empty 0 -9 0 10 -262144
-1 -1 1300 1;
#X msg 207 495 0;
#X msg 261 492 0.25;
#X obj 131 493 osc~ 500;
#X msg 22 422 300;
#X obj 147 396 bng 15 250 50 0 empty empty empty 17 7 0 10 -262144
-1 -1;
#X obj 174 362 moses 0.2;
#X obj 230 393 bng 15 250 50 0 empty empty empty 17 7 0 10 -262144
-1 -1;
#X msg 140 431 500;
#X msg 231 429 700;
#X connect 0 0 1 0;
#X connect 1 0 2 0;
#X connect 2 0 3 0;
#X connect 3 0 4 0;
#X connect 3 1 5 0;
#X connect 3 2 6 0;
#X connect 4 0 7 0;
#X connect 5 0 9 0;
#X connect 6 0 10 0;
#X connect 7 0 8 0;
#X connect 8 0 14 0;
#X connect 8 0 23 0;
#X connect 9 0 11 0;
#X connect 10 0 12 0;
#X connect 13 0 21 0;
#X connect 14 0 13 0;
#X connect 14 1 22 0;
#X connect 16 0 15 0;
#X connect 16 0 15 1;
#X connect 17 0 16 1;
#X connect 18 0 17 0;
#X connect 19 0 17 0;
#X connect 20 0 16 0;
#X connect 21 0 20 0;
#X connect 22 0 25 0;
#X connect 23 1 24 0;
#X connect 24 0 26 0;
#X connect 25 0 20 0;
#X connect 26 0 20 0;
