#N canvas -9 -9 1920 976 10;
#X obj 465 -3 r hand;
#X obj 465 44 route 0;
#X obj 448 98 route palm_position;
#X obj 449 142 unpack f f f;
#X floatatom 353 160 5 0 0 0 - - -;
#X floatatom 482 170 5 0 0 0 - - -;
#X floatatom 657 161 5 0 0 0 - - -;
#X obj 352 196 / 1000;
#X floatatom 210 240 10 0 0 0 - - -;
#X obj 482 195 / 1000;
#X obj 657 185 / 1000;
#X floatatom 482 220 10 0 0 0 - - -;
#X floatatom 657 213 10 0 0 0 - - -;
#X obj 19 482 moses -0.2;
#X obj -371 966 dac~;
#X obj -369 929 *~;
#X obj -281 844 vsl 15 128 0 127 0 0 empty empty empty 0 -9 0 10 -262144
-1 -1 0 1;
#X msg -307 808 0;
#X msg -253 805 0.25;
#X obj -369 777 osc~ 500;
#X obj 76 509 bng 15 250 50 0 empty empty empty 17 7 0 10 -262144 -1
-1;
#X obj 299 272 moses 0.2;
#X obj 348 297 bng 15 250 50 0 empty empty empty 17 7 0 10 -262144
-1 -1;
#X obj 468 266 bng 15 250 50 0 empty empty empty 17 7 0 10 -262144
-1 -1;
#X obj 548 267 bng 15 250 50 0 empty empty empty 17 7 0 10 -262144
-1 -1;
#X obj 544 370 bng 15 250 50 0 empty empty empty 17 7 0 10 -262144
-1 -1;
#X obj 450 448 line~;
#X obj 610 449 line~;
#X obj 523 481 osc~;
#X obj 526 575 dac~;
#X obj 524 510 *~;
#X msg 610 423 1 \, 0 50;
#X obj 525 538 *~ 0.5;
#X msg 544 456 0.5;
#X msg 450 420 220 \, 50 20;
#X text 562 419 Bass;
#X obj -46 677 noise~;
#X obj 1 677 line~;
#X obj -52 794 dac~;
#X text -103 711 Generates ramp from 2 values;
#X obj -51 762 *~;
#X text 84 645 HiHat;
#X msg 1 646 0.6 \, 0 75;
#X obj -1 619 bng 15 250 50 0 empty empty empty 17 7 0 10 -262144 -1
-1;
#X obj 304 441 noise~;
#X obj 354 442 line~;
#X obj 304 477 *~;
#X obj 296 559 dac~;
#X obj 304 532 *~ 1;
#X obj 304 505 lop~ 400;
#X msg 354 410 3 \, 0 50;
#X text 355 474 Snare;
#X obj 323 408 bng 15 250 50 0 empty empty empty 17 7 0 10 -262144
-1 -1;
#X obj 21 551 change;
#X obj 6 506 bng 15 250 50 0 empty empty empty 17 7 0 10 -262144 -1
-1;
#X msg 85 531 0;
#X msg -9 528 1;
#X floatatom 34 579 5 0 0 0 - - -;
#X obj -50 590 moses 0.5;
#X text -143 521 if < -0.2 bang a 1;
#X text -166 573 if it's a 1 \, bang;
#X obj 865 654 leapmotion;
#X obj 493 314 change;
#X obj 493 342 moses 0.5;
#X msg 462 288 1;
#X msg 545 288 0;
#X obj -24 114 route fingers;
#X obj -132 158 route 0 1 2 3 4;
#X obj -343 188 route position;
#X obj 482 243 moses 0.15;
#X obj 298 301 bng 15 250 50 0 empty empty empty 17 7 0 10 -262144
-1 -1;
#X obj 317 351 change;
#X msg 359 323 1;
#X msg 284 326 0;
#X obj 328 373 moses 0.5;
#X obj -343 215 unpack f f f;
#X floatatom -343 238 5 0 0 0 - - -;
#X obj -342 263 / 1000;
#X floatatom -342 295 5 0 0 0 - - -;
#X obj -266 357 min;
#X obj -124 190 route position;
#X obj -124 217 unpack f f f;
#X floatatom -124 240 5 0 0 0 - - -;
#X obj -123 265 / 1000;
#X floatatom -123 297 5 0 0 0 - - -;
#X obj -231 190 route position;
#X obj -231 217 unpack f f f;
#X floatatom -231 240 5 0 0 0 - - -;
#X obj -230 265 / 1000;
#X floatatom -230 297 5 0 0 0 - - -;
#X obj -24 190 route position;
#X obj -24 217 unpack f f f;
#X floatatom -24 240 5 0 0 0 - - -;
#X obj -23 265 / 1000;
#X floatatom -23 297 5 0 0 0 - - -;
#X obj 76 190 route position;
#X obj 76 217 unpack f f f;
#X floatatom 76 240 5 0 0 0 - - -;
#X obj 77 265 / 1000;
#X floatatom 77 297 5 0 0 0 - - -;
#X obj -55 348 min;
#X obj -164 387 min;
#X obj 20 431 min;
#X obj -295 0 r general;
#X obj -286 32 unpack f f f f f f;
#X obj -355 11 == 0;
#X floatatom -320 83 5 0 0 0 - - -;
#X msg -359 55 0;
#X obj -358 34 trigger b;
#X obj -250 69 == 4;
#X obj -213 66 == 3;
#X obj -171 67 == 2;
#X obj -133 68 == 1;
#X obj -99 67 == 0;
#X floatatom -49 493 5 0 0 0 - - -;
#X msg -254 109 0;
#X msg -210 107 0;
#X msg -172 109 0;
#X msg -131 107 0;
#X msg -89 105 0;
#X floatatom -291 236 5 0 0 0 - - -;
#X obj -290 261 / 1000;
#X floatatom -290 293 5 0 0 0 - - -;
#X obj -214 355 min;
#X floatatom -72 238 5 0 0 0 - - -;
#X obj -71 263 / 1000;
#X floatatom -71 295 5 0 0 0 - - -;
#X floatatom -179 238 5 0 0 0 - - -;
#X obj -178 263 / 1000;
#X floatatom -178 295 5 0 0 0 - - -;
#X floatatom 28 238 5 0 0 0 - - -;
#X obj 29 263 / 1000;
#X floatatom 29 295 5 0 0 0 - - -;
#X floatatom 128 238 5 0 0 0 - - -;
#X obj 129 263 / 1000;
#X floatatom 129 295 5 0 0 0 - - -;
#X obj -3 346 min;
#X obj -112 385 min;
#X obj 72 429 min;
#X connect 0 0 1 0;
#X connect 1 0 2 0;
#X connect 1 0 66 0;
#X connect 2 0 3 0;
#X connect 3 0 4 0;
#X connect 3 1 5 0;
#X connect 3 2 6 0;
#X connect 4 0 7 0;
#X connect 5 0 9 0;
#X connect 6 0 10 0;
#X connect 7 0 8 0;
#X connect 8 0 21 0;
#X connect 9 0 11 0;
#X connect 10 0 12 0;
#X connect 13 0 54 0;
#X connect 13 0 114 0;
#X connect 13 1 20 0;
#X connect 15 0 14 0;
#X connect 15 0 14 1;
#X connect 16 0 15 1;
#X connect 17 0 16 0;
#X connect 18 0 16 0;
#X connect 19 0 15 0;
#X connect 20 0 55 0;
#X connect 21 0 70 0;
#X connect 21 1 22 0;
#X connect 22 0 72 0;
#X connect 23 0 64 0;
#X connect 24 0 65 0;
#X connect 25 0 34 0;
#X connect 25 0 33 0;
#X connect 25 0 31 0;
#X connect 26 0 28 0;
#X connect 27 0 30 1;
#X connect 28 0 30 0;
#X connect 30 0 32 0;
#X connect 31 0 27 0;
#X connect 32 0 29 0;
#X connect 32 0 29 1;
#X connect 33 0 28 1;
#X connect 34 0 26 0;
#X connect 36 0 40 0;
#X connect 37 0 40 1;
#X connect 40 0 38 0;
#X connect 40 0 38 1;
#X connect 42 0 37 0;
#X connect 43 0 42 0;
#X connect 44 0 46 0;
#X connect 45 0 46 1;
#X connect 46 0 49 0;
#X connect 48 0 47 0;
#X connect 48 0 47 1;
#X connect 49 0 48 0;
#X connect 50 0 45 0;
#X connect 52 0 50 0;
#X connect 53 0 57 0;
#X connect 53 0 58 0;
#X connect 54 0 56 0;
#X connect 55 0 53 0;
#X connect 56 0 53 0;
#X connect 58 1 43 0;
#X connect 62 0 63 0;
#X connect 63 1 25 0;
#X connect 64 0 62 0;
#X connect 65 0 62 0;
#X connect 66 0 67 0;
#X connect 67 0 68 0;
#X connect 67 1 85 0;
#X connect 67 2 80 0;
#X connect 67 3 90 0;
#X connect 67 4 95 0;
#X connect 68 0 75 0;
#X connect 69 0 23 0;
#X connect 69 1 24 0;
#X connect 70 0 73 0;
#X connect 71 0 74 0;
#X connect 72 0 71 0;
#X connect 73 0 71 0;
#X connect 74 1 52 0;
#X connect 75 0 76 0;
#X connect 75 1 120 0;
#X connect 76 0 77 0;
#X connect 77 0 78 0;
#X connect 78 0 79 0;
#X connect 79 0 101 0;
#X connect 80 0 81 0;
#X connect 81 0 82 0;
#X connect 81 1 124 0;
#X connect 82 0 83 0;
#X connect 83 0 84 0;
#X connect 84 0 100 0;
#X connect 85 0 86 0;
#X connect 86 0 87 0;
#X connect 86 1 127 0;
#X connect 87 0 88 0;
#X connect 88 0 89 0;
#X connect 89 0 79 1;
#X connect 90 0 91 0;
#X connect 91 0 92 0;
#X connect 91 1 130 0;
#X connect 92 0 93 0;
#X connect 93 0 94 0;
#X connect 94 0 100 1;
#X connect 95 0 96 0;
#X connect 96 0 97 0;
#X connect 96 1 133 0;
#X connect 97 0 98 0;
#X connect 98 0 99 0;
#X connect 99 0 102 1;
#X connect 100 0 101 1;
#X connect 101 0 102 0;
#X connect 102 0 13 0;
#X connect 103 0 104 0;
#X connect 104 2 105 0;
#X connect 104 3 109 0;
#X connect 104 3 110 0;
#X connect 104 3 111 0;
#X connect 104 3 112 0;
#X connect 104 3 113 0;
#X connect 104 3 106 0;
#X connect 105 0 108 0;
#X connect 108 0 107 0;
#X connect 109 0 115 0;
#X connect 110 0 116 0;
#X connect 111 0 117 0;
#X connect 112 0 118 0;
#X connect 115 0 97 0;
#X connect 116 0 97 0;
#X connect 116 0 92 0;
#X connect 117 0 97 0;
#X connect 117 0 92 0;
#X connect 117 0 82 0;
#X connect 118 0 97 0;
#X connect 118 0 92 0;
#X connect 118 0 82 0;
#X connect 118 0 87 0;
#X connect 119 0 97 0;
#X connect 119 0 92 0;
#X connect 119 0 82 0;
#X connect 119 0 87 0;
#X connect 119 0 76 0;
#X connect 120 0 121 0;
#X connect 121 0 122 0;
#X connect 122 0 123 0;
#X connect 123 0 137 0;
#X connect 124 0 125 0;
#X connect 125 0 126 0;
#X connect 126 0 136 0;
#X connect 127 0 128 0;
#X connect 128 0 129 0;
#X connect 129 0 123 1;
#X connect 130 0 131 0;
#X connect 131 0 132 0;
#X connect 132 0 136 1;
#X connect 133 0 134 0;
#X connect 134 0 135 0;
#X connect 135 0 138 1;
#X connect 136 0 137 1;
#X connect 137 0 138 0;
#X connect 138 0 69 0;
