#N canvas 319 23 961 828 10;
#X obj 465 -3 r hand;
#X obj 465 44 route 0;
#X obj 448 98 route palm_position;
#X obj 449 142 unpack f f f;
#X floatatom 144 234 5 0 0 0 - - -, f 5;
#X floatatom 483 218 5 0 0 0 - - -, f 5;
#X floatatom 657 215 5 0 0 0 - - -, f 5;
#X obj 143 270 / 1000;
#X floatatom 128 312 10 0 0 0 - - -, f 10;
#X obj 495 253 / 1000;
#X obj 688 252 / 1000;
#X floatatom 498 296 10 0 0 0 - - -, f 10;
#X floatatom 700 296 10 0 0 0 - - -, f 10;
#X obj 34 359 moses -0.2;
#X obj -371 966 dac~;
#X obj -369 929 *~;
#X obj -281 844 vsl 15 128 0 127 0 0 empty empty empty 0 -9 0 10 -262144
-1 -1 0 1;
#X msg -307 808 0;
#X msg -253 805 0.25;
#X obj -369 777 osc~ 500;
#X obj 68 403 bng 15 250 50 0 empty empty empty 17 7 0 10 -262144 -1
-1;
#X obj 242 363 moses 0.2;
#X obj 298 394 bng 15 250 50 0 empty empty empty 17 7 0 10 -262144
-1 -1;
#X msg 298 431 700;
#X obj 498 335 moses 0.12;
#X obj 498 374 bng 15 250 50 0 empty empty empty 17 7 0 10 -262144
-1 -1;
#X obj 552 373 bng 15 250 50 0 empty empty empty 17 7 0 10 -262144
-1 -1;
#X msg 497 409 200;
#X msg 557 411 400;
#X obj 579 544 bng 15 250 50 0 empty empty empty 17 7 0 10 -262144
-1 -1;
#X obj 485 622 line~;
#X obj 645 623 line~;
#X obj 558 655 osc~;
#X obj 561 749 dac~;
#X obj 559 684 *~;
#X msg 645 597 1 \, 0 50;
#X obj 560 712 *~ 0.5;
#X msg 579 630 0.5;
#X msg 485 594 220 \, 50 20;
#X text 514 528 Bass;
#X obj 579 480 udpreceive 9000;
#X obj 579 512 unpackOSC;
#X obj -63 713 noise~;
#X obj -16 713 line~;
#X obj -69 830 dac~;
#X text 31 714 Generates ramp from 2 values;
#X obj -68 798 *~;
#X text 67 681 HiHat;
#X msg -16 682 0.6 \, 0 75;
#X obj -18 655 bng 15 250 50 0 empty empty empty 17 7 0 10 -262144
-1 -1;
#X obj -18 605 udpreceive 9000;
#X obj -18 631 unpackOSC;
#X obj 258 610 noise~;
#X obj 308 611 line~;
#X obj 258 646 *~;
#X obj 250 728 dac~;
#X obj 258 701 *~ 1;
#X obj 258 674 lop~ 400;
#X msg 308 579 3 \, 0 50;
#X text 370 579 Snare;
#X obj 308 556 bng 15 250 50 0 empty empty empty 17 7 0 10 -262144
-1 -1;
#X obj 308 506 udpreceive 9000;
#X obj 308 532 unpackOSC;
#X obj -20 466 change;
#X obj -2 400 bng 15 250 50 0 empty empty empty 17 7 0 10 -262144 -1
-1;
#X msg 69 432 0;
#X msg -25 429 1;
#X floatatom -7 494 5 0 0 0 - - -, f 5;
#X obj -45 541 moses 0.5;
#X text -128 398 if < -0.2 bang a 1;
#X text -161 524 if it's a 1 \, bang;
#X connect 0 0 1 0;
#X connect 1 0 2 0;
#X connect 2 0 3 0;
#X connect 3 0 4 0;
#X connect 3 1 5 0;
#X connect 3 2 6 0;
#X connect 4 0 7 0;
#X connect 5 0 9 0;
#X connect 6 0 10 0;
#X connect 7 0 8 0;
#X connect 8 0 21 0;
#X connect 8 0 13 0;
#X connect 9 0 11 0;
#X connect 10 0 12 0;
#X connect 11 0 24 0;
#X connect 13 0 64 0;
#X connect 13 1 20 0;
#X connect 15 0 14 0;
#X connect 15 0 14 1;
#X connect 16 0 15 1;
#X connect 17 0 16 0;
#X connect 18 0 16 0;
#X connect 19 0 15 0;
#X connect 20 0 65 0;
#X connect 21 1 22 0;
#X connect 22 0 23 0;
#X connect 24 0 25 0;
#X connect 24 1 26 0;
#X connect 25 0 27 0;
#X connect 26 0 28 0;
#X connect 27 0 29 0;
#X connect 29 0 38 0;
#X connect 29 0 37 0;
#X connect 29 0 35 0;
#X connect 30 0 32 0;
#X connect 31 0 34 1;
#X connect 32 0 34 0;
#X connect 34 0 36 0;
#X connect 35 0 31 0;
#X connect 36 0 33 0;
#X connect 36 0 33 1;
#X connect 37 0 32 1;
#X connect 38 0 30 0;
#X connect 40 0 41 0;
#X connect 41 0 29 0;
#X connect 42 0 46 0;
#X connect 43 0 46 1;
#X connect 46 0 44 0;
#X connect 46 0 44 1;
#X connect 48 0 43 0;
#X connect 49 0 48 0;
#X connect 50 0 51 0;
#X connect 51 0 49 0;
#X connect 52 0 54 0;
#X connect 53 0 54 1;
#X connect 54 0 57 0;
#X connect 56 0 55 0;
#X connect 56 0 55 1;
#X connect 57 0 56 0;
#X connect 58 0 53 0;
#X connect 60 0 58 0;
#X connect 61 0 62 0;
#X connect 62 0 60 0;
#X connect 63 0 67 0;
#X connect 63 0 68 0;
#X connect 64 0 66 0;
#X connect 65 0 63 0;
#X connect 66 0 63 0;
#X connect 68 1 49 0;
